<?xml version="1.0" encoding="utf-8"?>
<!-- Generator: Adobe Illustrator 26.0.0, SVG Export Plug-In . SVG Version: 6.00 Build 0)  -->
<svg version="1.1" id="Capa_1" xmlns="http://www.w3.org/2000/svg" xmlns:xlink="http://www.w3.org/1999/xlink" x="0px" y="0px"
	 viewBox="0 0 688.3 461.5" style="enable-background:new 0 0 688.3 461.5;" xml:space="preserve">
<style type="text/css">
	.st0{fill:#F5F5F5;}
	.st1{fill:#EBEBEB;}
	.st2{opacity:0.6;}
	.st3{fill:#263238;}
	.st4{fill:#FFFFFF;}
	.st5{fill:#20254E;}
	.st6{fill:#C27461;}
	.st7{fill:#7D4336;}
	.st8{fill:#455A64;}
	.st9{opacity:0.3;enable-background:new    ;}
	.st10{fill:#FFCFB4;}
	.st11{fill:#FF9D64;}
	.st12{fill:#824E44;}
	.st13{fill:#FFBF9D;}
	.st14{fill:#5B342F;}
	.st15{opacity:0.3;}
	.st16{fill:#FF9A6C;}
</style>
<g id="freepik--background-complete--inject-132">
	<path class="st0" d="M505.2,185.1c-1.7-3.8-2.1-8.1-3.2-12.1c-0.6-2.1-1.6-4.4-3.6-5.4c-1.3-0.6-2.9-0.5-4.3-1
		c-5.1-1.5-6.5-8.7-11.3-10.9c-1.6-0.6-3.2-0.9-4.9-1c-6.5-0.8-13.2-3-17.2-8.1c-1.3-1.6-2.4-3.6-4-4.9s-4.2-1.9-5.9-0.5
		c1.4,2.7,2.7,5.5,4,8.2c1.2,2.5,2.5,5,4.5,6.8s5.1,2.8,7.6,1.6c0.8-0.5,1.6-0.8,2.6-0.9c0.7,0.1,1.3,0.5,1.7,1.1
		c3.5,3.9,2.4,10.4-1.1,14.4s-8.5,6-13.4,8c-1.8,0.7-3.6,1.4-5.5,1.1c-3.4-0.6-5.2-4.3-6.2-7.6c-2.2-7.3-3.3-15.3-7.8-21.4
		c-1.5-1.9-3.3-3.7-4.1-6c-0.9-2.5-0.7-5.3-2.2-7.5s-4.8-3.6-5-6.3c-0.1-1.9,1.5-3.6,3.2-4.4s3.7-1.1,5.5-1.8
		c0.7-0.3,1.5-0.8,1.5-1.6c0-1.1-1.6-1.6-2-2.7s0.8-2.3,1.3-3.5c1.1-2.7-1.7-5.4-4.4-6.5s-5.9-1.9-7.2-4.5c-0.5-1.3-0.8-2.6-0.9-3.9
		c-0.6-3.3-3.1-6.5-6.4-7.1s-7.1,2.4-6.5,5.8c0.3,1.8,1.7,3.2,2.4,5c0.7,1.7,0.5,4.2-1.2,4.7c-2.9,0.9-5.6-4.4-8-2.6
		c1,3.4,1.9,6.7,2.9,10.1c-3.8,1.9-8.3-1.6-9.9-5.5s-1.7-8.4-3.6-12.2s-7.1-6.6-10.4-3.9c-0.2,4.9,6.3,6.8,9.1,10.8
		c2,2.9,1.8,7.5-1.3,9.3s-7.8-1.3-6.6-4.6c0.4-1.1,1.4-2.1,1.5-3.3c0.1-1.5-1.2-2.8-2.4-3.8c-1.8-1.6-3.7-3.1-5.5-4.6
		c-1.1-1.1-2.5-1.9-3.9-2.5c-3.8-1.1-7.5,2-9.5,5.3s-3.1,7.4-5.9,10.2c-4,4.1-11.5,4.4-15.2,0.1s-1.8-12.3,3.7-13.9
		c2.1-0.6,4.7-0.5,5.8-2.3c1.9-3.2-3.6-7.4-1.7-10.7c1.5-2.5,5.3-1.4,8.1-2.2s4.3-3.6,6-6s4.2-4.8,7-4.2c-0.2-1.7-0.4-3.5,0.3-5
		s2.8-2.5,4.2-1.5c-1.4,2.3,0.3,5.5,2.7,6.6s5.3,0.9,8,0.6s6-1.3,6.3-4c0.1-0.9-0.2-1.8,0.1-2.6c1.2-3.2,7.1,1.2,9.4-1.4
		c1.3-1.3-0.1-3.7-2-4.2c-1.9-0.4-3.7,0.2-5.5,0.3s-4.1-0.9-4.2-2.8s2-3.2,2.2-5c0.4-3.1-4.8-3.8-6.7-1.4s-1.2,5.9-0.6,8.9
		c0.5,3,0.9,6.6-1.4,8.8c-1,1.4-3.5,0.7-4.3-0.8s-0.6-3.4-0.8-5.1s-0.9-3.7-2.6-4.2c-1.2-0.3-2.4,0.2-3.6,0.4
		c-4.8,0.6-8.1-5.6-6.6-10.1s5.8-7.5,10-9.8c3.1-1.7,6.9-3.3,9.9-1.5c1.4,0.8,2.4,2.2,3.8,3c2.4,1.4,5.4,0.9,8.1,1
		c4.4,0.1,8.6,1.8,11.9,4.6c1.2,1.1,2.4,3,1.4,4.3s-4,1.7-3.5,3.4c3.2,0.9,6.4-1,7.3-4.2c0.1-0.2,0.1-0.4,0.1-0.7
		c1.6,0.7,2.7,2.3,2.9,4c3.5-3.5,10.1-3,13,1.1c0.8,1.1,1.3,2.4,2.4,3.1s3,0.4,3.1-0.9c0-0.4-0.1-0.8-0.2-1.2
		c-0.7-1.9-1.3-3.7-2-5.5c2.5-1.4,5.5,0.8,7.3,3.1c6.4,8.6,11,3.4,20,4.8c6.1,0.9,8.8,4.8,12.2,9.6c10.6,14.5,24.5,26.5,34.1,41.7
		c1,1.6,1.9,3.2,2.8,4.8c-0.2-0.4-0.3-0.8-0.5-1.2c-3.7-9.9-8.4-19.4-13.9-28.3c-1.2-1.9-2.4-3.8-3.6-5.7c-0.8-1.2-1.5-2.3-2.3-3.4
		c-1-1.5-2.1-2.9-3.1-4.3c-0.8-1.2-1.7-2.3-2.6-3.4c-0.6-0.8-1.2-1.5-1.9-2.3c-0.7-0.9-1.4-1.7-2.1-2.6l-2.3-2.7
		c-0.2-0.3-0.5-0.6-0.7-0.8c-0.8-0.9-1.6-1.8-2.5-2.7c-0.1-0.1-0.1-0.2-0.2-0.3c-0.2-0.2-0.5-0.5-0.7-0.7c-0.7-0.8-1.4-1.5-2.1-2.2
		c-1.2-1.2-2.4-2.4-3.6-3.6c-1-1-2-2-3.1-2.9s-1.9-1.7-2.8-2.5s-1.9-1.6-2.8-2.4c-1.1-1-2.3-1.9-3.5-2.9l0,0
		c-3.3-2.7-6.7-5.2-10.2-7.5c-0.9-0.6-1.7-1.2-2.6-1.8s-1.8-1.1-2.6-1.7c-0.9-0.5-1.8-1.1-2.7-1.6s-1.8-1.1-2.7-1.6
		c-0.7-0.4-1.5-0.8-2.2-1.2c-0.4-0.2-0.7-0.4-1.1-0.6c-1.6-0.9-3.1-1.7-4.7-2.5c-0.8-0.4-1.6-0.8-2.4-1.2c-1-0.5-2-1-3.1-1.5
		c-0.1-0.1-0.3-0.2-0.5-0.2c-0.9-0.4-1.9-0.9-2.8-1.3c-1.3-0.6-2.7-1.1-4-1.7c-1.5-0.6-3.1-1.3-4.6-1.8c-1.7-0.7-3.5-1.3-5.2-1.9
		s-3.5-1.2-5.3-1.7s-3.5-1-5.4-1.5c-3.6-1-7.2-1.8-10.8-2.5c-0.1,0-0.1,0-0.2,0c-1.4-0.3-2.8-0.5-4.2-0.8c-0.1,0-0.2-0.1-0.3-0.1
		c-0.6-0.1-1.2-0.2-1.9-0.3c-2.6-0.4-5.2-0.8-7.9-1.1c-0.3-0.1-0.7-0.1-1-0.1c-0.8-0.1-1.5-0.2-2.3-0.2c-1.8-0.2-3.5-0.3-5.3-0.4
		s-3.7-0.2-5.5-0.3S351,5.3,349,5.3c-5.1,0-10.2,0.2-15.2,0.7c-1.2,0.1-2.4,0.2-3.5,0.3s-2.5,0.3-3.7,0.4s-2.5,0.3-3.7,0.5
		s-2.4,0.4-3.7,0.6c-1,0.2-2.1,0.4-3.1,0.6c-2.6,0.5-5.1,1-7.6,1.6c-1.2,0.3-2.4,0.6-3.5,0.9s-2.4,0.6-3.5,1
		c-1.9,0.6-3.8,1.1-5.7,1.7l0,0c-1.5,0.5-3.1,1-4.6,1.6c0,0-0.1,0-0.1,0c-1.6,0.5-3.1,1.1-4.6,1.7l-0.2,0.1
		c-1.4,0.5-2.8,1.1-4.1,1.7c-1.7,0.7-3.4,1.5-5.1,2.2c-1.4,0.7-2.8,1.3-4.2,2s-3,1.5-4.4,2.2l-0.2,0.1c-1.4,0.7-2.8,1.5-4.1,2.3
		s-2.9,1.7-4.3,2.6l0,0c-1.3,0.8-2.6,1.6-3.9,2.4c-0.5,0.3-1,0.6-1.5,1c-1.4,0.9-2.7,1.8-4,2.7c-1.6,1.1-3.2,2.3-4.8,3.5
		c-1.4,1-2.8,2.1-4.1,3.2c-7.7,6.1-14.9,12.9-21.5,20.2c-2.3,2.6-4.5,5.2-6.6,7.9c-1.8,2.3-3.6,4.6-5.2,7c-1.5,2.1-2.9,4.2-4.4,6.4
		c1.4-2.2,2.9-4.3,4.4-6.4c0.4-0.1,0.9-0.1,1.3-0.1c2.5-0.2,5.1-0.1,7.3-1.2c2-1,3.5-2.8,5.4-4.2c4.8-3.4,12.5-4,13.8-9.7
		c0.4-1.9-0.1-4,0.6-5.8c1.3-3.4,5.9-3.9,9.6-3.9c1.6,0,3.4,0.2,4.1,1.6c0.4,1,0.3,2.2-0.2,3.2c-2.3,6.4-6.7,11.9-12.5,15.4
		c-4.8,2.9-11,5.1-12.3,10.6c0.7,1.8,4,1.7,4.3,3.6c0.2,1.5-1.8,2.3-2.5,3.7c-1,2,1.3,4.4,3.6,4.3s4.1-1.8,5.8-3.3
		c5-4.6,10.2-9.6,12-16.2c0.8-2.7,1-5.9,3.2-7.7c2.6-2.1,7.2-0.7,8.1,2.6c2.2-1.2,5.5-2.1,6.6,0.1c0.3,0.8,0.4,1.7,0.5,2.6
		c0.7,3.5,5.5,5.1,6,8.6c0.6,4.1-4.6,6.2-8.7,6.8c-3.7,0.6-7.4,1.2-11.1,1.8c-1.6,0.1-3.2,0.6-4.6,1.5c-1.3,1-2.1,2.8-1.4,4.3
		c0.6,0.7,1.2,1.4,1.9,2c3.1,3.1,0.5,9.4-3.8,9.5c-1.5,0-2.9-0.5-4.4-0.6c-4.4-0.2-7.9,3.7-9.9,7.5s-3.6,8.2-7.1,10.9
		c-5.6,4.2-15.3,3.3-18.1,9.8c-1.1,2.6-0.5,5.6-0.1,8.4s0.6,5.9-1,8.2s-5.8,2.8-7,0.2c-0.4-1.2-0.5-2.4-0.2-3.6
		c0.7-4,1.3-8.1,1.9-12.1c0.5-3,0.9-6.4-0.9-8.8c-2.5-3.4-8.1-3.1-11.3-0.4s-4.5,7.1-5.4,11.2c-0.7,3.1-1.4,7.4-3.1,10.9l0,0
		c-0.6,3.4-1,6.8-1.4,10.3s-0.6,7.1-0.7,10.7c0.5-0.4,1-0.9,1.4-1.3c1.7-1.8,5.2-9.3,8.3-5.6c0.8,1,0.8,2.4,0.1,3.4
		c-1,1.2-2.9,1.5-3.6,2.8c-0.9,1.6,0.4,3.6,1.8,4.6s3.3,1.7,4.3,3.2c2,2.9,0.1,7.2,2,10.1c1.7,2.5,5.2,2.7,8.3,3l1,0.2
		c0.8-6,3.7-10.9,11.9-12.8c11.3-2.6,26.2,6.8,32.5,15.3c7.1,9.5,10.5,23,21.3,27.8c7.8,3.4,18.9,2.2,22.7,9.8
		c3.4,6.8-2.5,14.5-3.4,22.1c-0.6,5,1.1,10,1.5,15s-1.1,10.9-5.7,13c-2.5,1.1-5.7,1-7.8,2.9c-3.6,3.4-0.7,10.5-4.3,14
		c-1.3,1.2-3.1,1.6-4.6,2.4c-8.2,4.1-8,16.1-4.2,24.5c0.1,0.3,0.3,0.6,0.4,0.9c26.8,16,57.4,24.5,88.6,24.5c28.2,0,56.1-6.9,81-20.2
		l0,0c19-10.1,35.9-23.7,49.9-40c2.9-3.3,5.6-6.8,8.3-10.4c1.3-1.8,2.7-3.7,3.9-5.5c14.9-22,24.6-47.1,28.2-73.4
		c0.5-3.9,0.9-7.8,1.2-11.8c-1.8,1.9-4.3,3-6.9,3.1C510.3,192.4,506.8,188.9,505.2,185.1z"/>
	<path class="st1" d="M307.8,50.5c-3.4,2-5.2,5.9-7.9,8.9s-7.4,5.1-10.5,2.6c-1.4-1.3-2.3-3.1-2.3-5.1c-0.2-2.8,0.4-5.5,1.9-7.9
		c1.5-2.4,3.8-4.3,5-6.9s1-6.3-1.6-7.5c-1.4-0.7-3.1-0.4-4.4-1.3c-2.2-1.6-0.6-5.5,2-6.5s5.5-0.2,8.2,0c10,0.6,17.4-5.9,24.9-11.4
		c5.9-4.3,18.3-9.3,25.1-5c2.7,1.7,3.8,6.2,1.2,8.1c-1.1,0.9-2.7,1.1-3.8,2c-1.3,1.2-1.5,3.1-2.2,4.6c-1.9,4-7.4,5.5-9.1,9.6
		c-1.1,2.5-0.6,5.5-2.2,7.7c-1.3,1.7-3.5,2.3-5.6,2.8l-13,3.1C311.5,48.9,309.6,49.6,307.8,50.5z"/>
	<path class="st1" d="M424.5,263.1c-4.3,6.5-5.1,14.7-6.3,22.4s-3.3,16-9.2,21.1s-16.9,4.8-20.1-2.3c-1.8-3.9-0.9-8.4-1.8-12.6
		c-1.3-5.4-5.6-9.5-7.6-14.7c-1.7-4.4-1.8-9.2-1.9-14c-0.8-25.8-7.1-52.8-24.6-71.7c-2.1-2.3-4.6-4.6-7.7-5.4
		c-3.7-0.9-7.7,0.5-10,3.5c-1.4,1.9-2.1,4.2-3.9,5.8c-3.8,3.4-10.3,1-12.8-3.4s-2.2-9.9-1.7-14.9l1.6-18.9c0.3-3.3,0.6-6.8,2.8-9.3
		c3.1-3.6,8.6-3.7,12.3-6.5c4.9-3.7,5.6-10.7,8.7-16s12.8-7.6,14.2-1.6c10.3-22,33,10.7,46.5,8.2c3.9-0.7,7.8-2.6,11.7-2
		c7,1,10.6,8.6,12.9,15.3l11.8,33c1.5,4.2,3.4,8.9,7.6,10.4c3.2,1.2,6.9,0.3,10.1,1.5c8.5,3.1,5.7,16.4-1.1,22.3s-16.4,9.6-19.6,18
		c-2.4,6.3-0.5,13.8-3.1,20C431.2,255.8,427.2,259,424.5,263.1z"/>
	<path class="st1" d="M456.7,270.2c-2.8,0.4-6.1-1-8.2,0.9c-1.2,1.1-1.5,2.9-2,4.4c-0.6,2.2-2,4.1-4,5.4c-2,1.2-4.5,1.2-6.4-0.1
		c-1.9-1.4-2.3-4.1-0.9-6c0.8-0.7,1.6-1.4,2.4-2c3.7-3.5,1.2-10,4-14.1c1.7-2.5,4.3-4.9,6.1-7.4c1.4-1.9,1.9-3.4,4.5-3.9
		C463.4,245.2,468.5,268.6,456.7,270.2z"/>
	<g class="st2">
		<path class="st3" d="M252.9,321.4c1.5,1,2.9,1.9,4.4,2.9c1,0.7,2.1,1.3,3.1,1.9c-1.1-0.6-2.1-1.2-3.1-1.9
			C255.8,323.3,254.4,322.4,252.9,321.4z"/>
	</g>
	<g class="st2">
		<path class="st3" d="M176.5,170.8L176.5,170.8L176.5,170.8L176.5,170.8c0,0.3-0.1,0.6-0.1,1c0,1,0,2.1-0.1,3.1
			c0-1.1,0-2.1,0.1-3.1C176.5,171.4,176.5,171.1,176.5,170.8z"/>
	</g>
	<path class="st1" d="M198.9,223.4c-0.6-4.9,1.1-9.9,1.2-14.9c0.1-3.4-0.2-7.1-0.2-10.6c-3-0.1-5.9-0.5-8.8-1.2
		c-0.6-0.1-1.2-0.4-1.6-0.8c-0.3-0.6-0.4-1.2-0.4-1.8c-0.2-3.9-4-6.4-7.3-8.4c-1.7-1.1-3.5-1.9-5.3-2.6c0,0.4,0,0.8,0,1.2
		c0.7,18.7,4.4,37.3,11,54.8c2.9,7.8,6.5,15.4,10.6,22.6c1.7,3.1,3.6,6.2,5.5,9.3c2.4,3.8,4.9,7.4,7.6,10.9c2.5,3.4,5.2,6.7,8,9.9
		c3.9,4.4,7.9,8.6,12.2,12.6c3.8,3.6,7.8,6.9,11.9,10.1c-9.4-25.3-18.3-51.1-34.4-72.7C204.6,236.1,199.7,230.4,198.9,223.4z"/>
	<path class="st1" d="M200.2,191.2l-1-0.2c-3-0.3-6.6-0.5-8.3-3c-1.9-2.9,0-7.3-2-10.1c-1-1.5-2.8-2.2-4.3-3.2s-2.7-3-1.8-4.6
		c0.7-1.3,2.6-1.6,3.6-2.8c0.8-1,0.7-2.4-0.1-3.4c-3.1-3.7-6.6,3.8-8.3,5.6c-0.4,0.5-0.9,0.9-1.4,1.3l0,0c0,0.3-0.1,0.6-0.1,1
		c0,1,0,2.1-0.1,3.1s-0.1,2.1-0.1,3.1c0,0.9,0,0.8,0,1.6s0.1,2.6,0.1,3.4c1.9,0.7,3.6,1.6,5.3,2.6c3.4,1.9,7.1,4.5,7.3,8.4
		c-0.1,0.6,0.1,1.3,0.4,1.8c0.4,0.5,1,0.7,1.6,0.8c2.9,0.7,5.8,1.1,8.8,1.2"/>
	<path class="st1" d="M199.8,197.9c0,3.5,0.3,7.1,0.2,10.6c-0.1,5-1.7,10-1.2,14.9c0.8,7,5.6,12.7,9.9,18.4
		c16.1,21.5,25,47.4,34.4,72.7l0,0c1.8,1.4,3.5,2.7,5.3,4c1.4,1,2.9,2,4.3,3s2.9,1.9,4.4,2.9c1,0.7,2.1,1.3,3.1,1.9
		c-0.1-0.3-0.3-0.6-0.4-0.9c-3.8-8.3-4-20.4,4.2-24.5c1.6-0.8,3.3-1.2,4.6-2.4c3.6-3.4,0.6-10.5,4.3-14c2-1.9,5.2-1.8,7.8-2.9
		c4.6-2.1,6-8,5.7-13s-2-10-1.5-15c0.9-7.6,6.8-15.2,3.4-22.1c-3.8-7.6-14.9-6.4-22.7-9.8c-10.9-4.8-14.2-18.3-21.3-27.8
		c-6.4-8.5-21.2-17.9-32.6-15.3c-8.2,1.9-11,6.8-11.9,12.8"/>
	<path class="st1" d="M187.2,127.7c3.2-2.8,8.8-3.1,11.3,0.4c1.8,2.5,1.4,5.8,0.9,8.8c-0.6,4-1.3,8.1-1.9,12.1
		c-0.3,1.2-0.3,2.5,0.2,3.6c1.2,2.6,5.4,2.1,7-0.2s1.4-5.4,1-8.2s-1-5.8,0.1-8.4c2.7-6.5,12.4-5.5,18.1-9.8c3.5-2.6,5.1-7,7.1-10.9
		s5.5-7.7,9.9-7.5c1.5,0.1,2.9,0.6,4.4,0.5c4.3-0.1,6.8-6.4,3.8-9.5c-0.7-0.6-1.4-1.3-1.9-2c-0.8-1.4,0.1-3.3,1.4-4.3
		c1.4-0.9,3-1.4,4.6-1.5c3.7-0.6,7.4-1.2,11.1-1.8c4.1-0.6,9.3-2.7,8.7-6.8c-0.5-3.5-5.3-5.1-6-8.6c-0.1-0.9-0.2-1.7-0.5-2.6
		c-1.1-2.2-4.5-1.3-6.6-0.1c-0.9-3.2-5.5-4.7-8.1-2.6c-2.2,1.8-2.5,5-3.2,7.7c-1.8,6.6-7,11.5-12,16.2c-1.7,1.5-3.5,3.2-5.8,3.3
		s-4.6-2.3-3.6-4.3c0.7-1.4,2.7-2.2,2.5-3.7c-0.3-1.9-3.6-1.8-4.3-3.6c1.3-5.4,7.5-7.7,12.3-10.6c5.8-3.5,10.3-9,12.5-15.4
		c0.5-1,0.6-2.1,0.2-3.2c-0.7-1.4-2.5-1.6-4.1-1.6c-3.7,0-8.2,0.4-9.6,3.9c-0.7,1.8-0.2,3.9-0.6,5.8c-1.3,5.7-9.1,6.3-13.8,9.7
		c-1.9,1.3-3.3,3.1-5.4,4.2c-2.2,1.1-4.8,1-7.3,1.2c-0.4,0-0.9,0.1-1.3,0.1c-1.5,2.1-3,4.2-4.4,6.4c-1.4,2.2-2.7,4.4-4,6.6
		c-6.2,10.6-11.2,21.8-15,33.4c-1.3,4.1-2.5,8.2-3.5,12.4s-1.9,8.5-2.6,12.8c1.7-3.5,2.5-7.8,3.1-10.9
		C182.7,134.8,184,130.4,187.2,127.7z"/>
	<path class="st1" d="M521.4,189.3c0,0-4.3,3.2-6.9,3.1c-4.2-0.1-7.6-3.5-9.2-7.4s-2.1-8.1-3.2-12.1c-0.6-2.1-1.6-4.4-3.6-5.4
		c-1.3-0.6-2.9-0.5-4.3-1c-5.1-1.5-6.5-8.7-11.3-10.9c-1.6-0.6-3.2-0.9-4.9-1c-6.5-0.8-13.2-3-17.2-8.1c-1.3-1.6-2.4-3.6-4-4.9
		s-4.2-1.9-5.9-0.5c1.4,2.7,2.7,5.5,4,8.2c1.2,2.5,2.5,5,4.5,6.8s5.1,2.8,7.6,1.6c0.8-0.5,1.6-0.8,2.6-0.9c0.7,0.1,1.3,0.5,1.7,1.1
		c3.5,3.9,2.4,10.4-1.1,14.4s-8.5,6-13.4,8c-1.8,0.7-3.6,1.4-5.5,1.1c-3.4-0.6-5.2-4.3-6.2-7.6c-2.2-7.3-3.3-15.3-7.8-21.4
		c-1.5-1.9-3.3-3.7-4.1-6c-0.9-2.5-0.7-5.3-2.2-7.5s-4.8-3.6-5-6.3c-0.1-1.9,1.5-3.6,3.2-4.4s3.7-1.1,5.5-1.8
		c0.7-0.3,1.5-0.8,1.5-1.6c0-1.1-1.6-1.6-2-2.7s0.8-2.3,1.3-3.5c1.1-2.7-1.7-5.4-4.4-6.5s-5.9-1.9-7.2-4.5c-0.5-1.3-0.8-2.6-0.9-3.9
		c-0.6-3.3-3.1-6.5-6.4-7.1s-7.1,2.4-6.5,5.8c0.3,1.8,1.7,3.2,2.4,5c0.7,1.7,0.5,4.2-1.2,4.7c-2.9,0.9-5.6-4.4-8-2.6
		c1,3.4,1.9,6.7,2.9,10.1c-3.8,1.9-8.3-1.6-9.9-5.5s-1.7-8.4-3.6-12.2s-7.1-6.6-10.4-3.9c-0.2,4.9,6.3,6.8,9.1,10.8
		c2,2.9,1.8,7.5-1.3,9.3s-7.8-1.3-6.6-4.6c0.4-1.1,1.4-2.1,1.5-3.3c0.1-1.5-1.2-2.8-2.4-3.8c-1.8-1.6-3.7-3.1-5.5-4.6
		c-1.1-1.1-2.5-1.9-3.9-2.5c-3.8-1.1-7.5,2-9.5,5.3s-3.1,7.4-5.9,10.2c-4,4.1-11.5,4.4-15.2,0.1s-1.8-12.3,3.7-13.9
		c2.1-0.6,4.7-0.5,5.8-2.3c1.9-3.2-3.6-7.4-1.7-10.7c1.5-2.5,5.3-1.4,8.1-2.2s4.3-3.6,6-6s4.2-4.8,7-4.2c-0.2-1.7-0.4-3.5,0.3-5
		s2.8-2.5,4.2-1.5c-1.4,2.3,0.3,5.5,2.7,6.6s5.3,0.9,8,0.6s6-1.3,6.3-4c0.1-0.9-0.2-1.8,0.1-2.6c1.2-3.2,7.1,1.2,9.4-1.4
		c1.3-1.3-0.1-3.7-2-4.2c-1.9-0.4-3.7,0.2-5.5,0.3s-4.1-0.9-4.2-2.8s2-3.2,2.2-5c0.4-3.1-4.8-3.8-6.7-1.4s-1.2,5.9-0.6,8.9
		c0.5,3,0.9,6.6-1.4,8.8c-1,1.4-3.5,0.7-4.3-0.8s-0.6-3.4-0.8-5.1s-0.9-3.7-2.6-4.2c-1.2-0.3-2.4,0.2-3.6,0.4
		c-4.8,0.6-8.1-5.6-6.6-10.1s5.8-7.5,10-9.8c3.1-1.7,6.9-3.3,9.9-1.5c1.4,0.8,2.4,2.2,3.8,3c2.4,1.4,5.4,0.9,8.1,1
		c4.4,0.1,8.6,1.8,11.9,4.6c1.2,1.1,2.4,3,1.4,4.3s-4,1.7-3.5,3.4c3.2,0.8,6.4-1,7.3-4.2c0.1-0.2,0.1-0.4,0.1-0.6
		c1.6,0.7,2.7,2.3,2.9,4c3.5-3.5,10.1-3,13,1.1c0.8,1.1,1.3,2.4,2.4,3.1s3,0.4,3.1-0.9c0-0.4-0.1-0.8-0.2-1.2
		c-0.7-1.9-1.3-3.7-2-5.5c2.5-1.4,5.5,0.8,7.3,3.1c6.4,8.6,11,3.4,20,4.8c6.1,0.9,8.8,4.8,12.2,9.6c10.6,14.5,24.5,26.5,34.1,41.7
		c1,1.6,1.9,3.2,2.8,4.8l0,0l0,0c0.8,2.2,1.6,4.4,2.3,6.6s1.4,4.4,2.1,6.7c1.7,5.6,3.1,11.2,4.1,16.9c0,0,1.2,9.8,1.5,13
		c0.2,2.4,0.4,4.9,0.6,7.3s0.2,4.9,0.2,7.4L521.4,189.3z"/>
	<path class="st0" d="M97.8,147.8c0.7-4.8-6.2-8.8-11.3-9.2c-2.4-0.2-5,0.2-7.3-0.6c-5-1.8-7-8.2-11.9-10.3
		c-3.7-1.6-7.9-0.2-11.4,1.6s-7,4-11,4.3c-3.4,0.2-7.2-1.1-10.2,0.6c-2.2,1.3-3.4,3.9-5.5,5.4s-4.7,1.8-7.2,1.9s-5.1,0.2-7.4,1.2
		s-4.2,3.5-3.7,5.9L97.8,147.8z"/>
	<path class="st1" d="M200.1,50.9c0.7-4.8-6.2-8.8-11.3-9.2c-2.4-0.2-5,0.2-7.3-0.6c-5-1.8-7-8.2-11.9-10.3
		c-3.7-1.5-7.9-0.2-11.4,1.6c-3.5,1.8-7.1,4-11,4.3c-3.4,0.2-7.2-1.1-10.2,0.6c-2.2,1.3-3.4,3.8-5.5,5.4s-4.7,1.8-7.2,1.9
		s-5.1,0.2-7.4,1.2s-4.2,3.5-3.7,5.9L200.1,50.9z"/>
	<path class="st0" d="M682.4,125.5c1.1-7.8-9.9-14.1-18.1-14.8c-3.9-0.3-8,0.3-11.7-1c-8.1-2.8-11.3-13.2-19.1-16.5
		c-5.9-2.5-12.7-0.3-18.3,2.6s-11.3,6.5-17.7,6.9c-5.5,0.3-11.6-1.7-16.4,1c-3.6,2-5.5,6.2-8.8,8.6s-7.5,2.9-11.5,3.1
		s-8.2,0.3-11.9,1.9s-6.7,5.6-6,9.6L682.4,125.5z"/>
	<path class="st1" d="M578.9,50.7c0.1-2.7-0.7-5.4-2.2-7.6c-1.4-2.3-3.4-4-5.9-5.1c-4.3-1.7-9.2-0.3-12,3.4
		c-0.5-1.4-1.4-2.7-2.5-3.7c-2.1-1.9-4.8-3-7.7-2.8c-2.6,0.2-5.2,1.3-7.2,3c-2.1,1.7-3.7,4-4.5,6.5c-0.9,3.3-0.8,6.9,0.4,10.1
		c1.5,3.3,3.7,6.2,6.6,8.5c4.6,3.9,10.6,8.7,10.6,8.7s6.3-3.3,11.8-5.5c3.4-1.3,6.5-3.3,8.9-6C577.5,57.5,578.7,54.2,578.9,50.7z"/>
	<path class="st1" d="M127,88.8c-1.1-1.7-2.8-3.1-4.7-3.9c-1.9-0.8-3.9-1.1-5.9-0.7c-2.1,0.5-3.9,1.8-5,3.7c-0.6,1.1-1,2.4-1.1,3.6
		c-2.8-1.9-6.6-1.8-9.3,0.2c-1.6,1.3-2.7,3-3.3,5c-0.6,2-0.6,4.1,0,6.1c0.8,2.5,2.5,4.7,4.6,6.2c2.4,1.5,5.1,2.3,7.9,2.5
		c4.6,0.5,10.5,0.9,10.5,0.9s2.6-4.8,5.1-8.7c1.6-2.3,2.6-4.9,3-7.7C129.1,93.7,128.4,91,127,88.8z"/>
</g>
<g id="freepik--Table--inject-132">
	<path class="st3" d="M688.3,454.8c0,0.1-154.1,0.3-344.1,0.3S0,454.9,0,454.8s154.1-0.3,344.2-0.3S688.3,454.6,688.3,454.8z"/>
</g>
<g id="freepik--speech-bubble--inject-132">
	<path class="st4" d="M366.6,108.5c18.6-3.4,30.8-21.3,27.4-39.9s-21.3-30.8-39.9-27.4c-18.6,3.4-30.8,21.3-27.4,39.9
		c2.7,14.7,14.8,26,29.6,27.7l5.9,8.9L366.6,108.5z"/>
	<path class="st3" d="M366.6,108.5c0,0-0.1,0.2-0.3,0.6s-0.5,1-0.8,1.8c-0.7,1.6-1.8,3.9-3.1,6.9l-0.1,0.2l-0.2-0.2l-6-8.9l0.1,0.1
		c-5.9-0.7-11.5-2.8-16.3-6.3c-1.4-1-2.7-2.1-3.9-3.3c-1.3-1.3-2.4-2.6-3.5-4.1c-2.3-3-4.1-6.5-5.2-10.1c-5.6-17.8,3.9-36.8,21.4-43
		c7.3-2.6,15.3-2.6,22.6-0.1c3.5,1.1,6.7,2.8,9.6,5c2.8,2.1,5.3,4.6,7.3,7.4l0.8,1c0.2,0.4,0.4,0.7,0.6,1.1c0.4,0.7,0.9,1.4,1.3,2.2
		c1.5,2.9,2.5,5.9,3.2,9.1c0.1,0.8,0.2,1.6,0.4,2.3l0.2,1.1l0,1.1c0.2,2.9,0,5.8-0.5,8.7c-0.5,2.6-1.4,5.2-2.5,7.7
		c-1.9,4.2-4.7,8.1-8.1,11.3c-2.6,2.4-5.5,4.3-8.7,5.8c-2,0.9-4.1,1.7-6.2,2.2c-0.7,0.2-1.3,0.3-1.7,0.3
		C367,108.5,366.8,108.5,366.6,108.5c0.2,0,0.4-0.1,0.5-0.1c0.4-0.1,1-0.2,1.7-0.4c2.1-0.6,4.2-1.3,6.1-2.3c3.1-1.5,6-3.5,8.5-5.8
		c5.3-5,8.9-11.5,10.2-18.7c0.5-2.8,0.7-5.7,0.5-8.6l0-1.1l-0.2-1.1c-0.1-0.8-0.2-1.5-0.4-2.3c-0.3-1.5-0.8-3-1.3-4.5
		c-0.5-1.5-1.2-3-1.9-4.5c-0.4-0.7-0.8-1.4-1.2-2.1c-0.2-0.3-0.4-0.7-0.6-1.1l-0.7-1c-2-2.8-4.4-5.2-7.2-7.3c-2.8-2.2-6-3.9-9.4-5
		c-7.2-2.4-14.9-2.3-22,0.2c-17.2,6.1-26.5,24.7-21.1,42.1c1.1,3.6,2.8,6.9,5.1,9.9c1,1.4,2.2,2.7,3.4,4c1.2,1.2,2.5,2.3,3.8,3.3
		c4.7,3.5,10.2,5.6,16,6.3h0.1l0.1,0.1c2.3,3.5,4.2,6.5,5.8,9h-0.3l3.3-6.9l0.9-1.8C366.4,108.9,366.5,108.7,366.6,108.5z"/>
	<path class="st5" d="M373.9,71.2c-0.2-1.7-0.9-3.4-2-4.7c-1-1.3-2.5-2.3-4.1-2.8c-2.9-0.8-5.9,0.5-7.3,3.1
		c-1.3-2.5-4.1-3.9-6.9-3.4c-1.7,0.3-3.2,1.2-4.3,2.4c-1.2,1.2-2.1,2.8-2.4,4.5c-0.4,2.2,0,4.4,1,6.4c1.2,2,2.8,3.7,4.8,4.9
		c3.2,2.1,7.4,4.7,7.4,4.7s3.8-2.6,7.1-4.4c2.1-1.1,3.8-2.6,5.2-4.5C373.5,75.6,374.1,73.4,373.9,71.2z"/>
</g>
<g id="freepik--Characters--inject-132">
	<polygon class="st3" points="199,454.7 204.6,413.4 324.2,407.7 332.6,454.8 	"/>
	<path class="st6" d="M311.1,283.7l35.9,39.8c5.9,6.6,10.2,12.5,18.7,15c6,1.7,18.5,2.4,21.7-1.5c4.4-5.4,7-14.7,1-26.3
		c-4-7.6-38.8-38.7-38.8-38.7L311.1,283.7"/>
	<path class="st5" d="M322.9,290.3c0.2,2,9.6,21.5,9.6,21.5l30.8-20.1c0,0-19.8-47.1-34.3-50.3L322.9,290.3z"/>
	<path class="st6" d="M375.6,235.4l0.4-15l-1-19.1l-3-15.9c0,0-0.8-1.6-2.8-0.4S369,195,369,195l0.3,6.5c0,0-1.2,5-1.5,4.6
		s-1.6-9.2-1.6-9.2l-3.6-18.9c-0.5-1.2-1.9-1.8-3.2-1.3c-1.3,0.4-2.1,2.3-2,5.1s1.4,7.5,1.5,9.1s1.2,10.8,1.2,10.8l-6.4-21.1
		c0,0-1.2-6.9-4-5.9s-1,5.9-0.8,8s4.2,16.5,3.9,20.5s-1,2-1,2l-3-11.8c-1.3-5.2-3.3-8.2-5.5-8.6s0.8,11.7,0.8,11.7l3.8,16.9l-1,5.4
		l-3.8-4.8c0,0-0.1-6.3-4.1-9s-5,0.3-5,0.3l7.4,24.5c1.8,4,13,11.8,13,11.8l2,24.6l25.1-0.5L375.6,235.4z"/>
	<path class="st7" d="M366.8,226.6c-0.1,0.1-1.3-1.1-3.4-2.8s-5.2-4-9.2-3.8c-1.7,0-3.3,0.6-4.5,1.6l-0.4,0.4l-0.4-0.5
		c-1.6-2.1-3.3-4-4.4-5.3s-1.6-2.2-1.5-2.3c0.7,0.6,1.4,1.2,2,1.9c1.7,1.6,3.3,3.4,4.8,5.2l-0.8-0.1c1.4-1.3,3.3-2,5.2-2
		c2-0.1,4.1,0.4,5.9,1.4c1.4,0.8,2.7,1.8,3.9,2.9C365.9,225.1,366.9,226.5,366.8,226.6z"/>
	<polygon class="st6" points="360.3,321 355,244.5 376.2,237.9 391.7,321 	"/>
	<path class="st3" d="M314.2,146.3c4.7,0.8,9.1-2.3,9.9-7c0.7-4-1.5-8-5.3-9.5c3.6-3.3,3.9-9,0.6-12.6c-1.9-2.1-4.7-3.1-7.5-2.9
		c0.1-5.9-4.6-10.8-10.5-10.9c-1.8,0-3.5,0.4-5.1,1.2c-4.1-3.8-10.2-4.2-14.8-1.2c-4.6-1.1-9.2,1.7-10.3,6.3c-0.7,2.7,0.1,5.6,2,7.7
		"/>
	<path class="st6" d="M315.3,194.2c0.7-9.4,0.5-29,0.1-46.7c-0.4-19-15.4-34.5-34.3-35.6l-1.9-0.1c-20.4,0-31.8,17.3-31.3,37.7
		l-3.1,78.6l12.4,11.1c9.5,8.6,24.2,7.9,32.8-1.6c1.3-1.4,2.4-3,3.3-4.7l0,0l1-17.3C294.2,215.6,313.9,213.7,315.3,194.2z"/>
	<path class="st7" d="M294.4,215.6c-9.1-0.5-17.8-3.6-25.2-9c0,0,5.2,14.4,24.8,13.8L294.4,215.6z"/>
	<path class="st3" d="M306.8,164c-0.1,1.5-1.3,2.7-2.9,2.7c-1.5,0-2.7-1.1-2.7-2.6c0,0,0,0,0-0.1c0.1-1.5,1.3-2.7,2.9-2.7
		C305.5,161.3,306.8,162.5,306.8,164C306.8,164,306.8,164,306.8,164z"/>
	<path class="st3" d="M310.7,156.9c-0.4,0.3-2.4-1.4-5.4-1.5s-5.3,1.2-5.6,0.8c-0.1-0.2,0.2-0.8,1.2-1.4c1.4-0.8,2.9-1.2,4.5-1.1
		c1.6,0.1,3.1,0.7,4.3,1.7C310.6,156,310.8,156.7,310.7,156.9z"/>
	<path class="st3" d="M279.2,164c-0.1,1.5-1.3,2.7-2.9,2.7c-1.5,0-2.7-1.1-2.7-2.6c0,0,0-0.1,0-0.1c0.1-1.5,1.3-2.7,2.9-2.7
		C277.9,161.3,279.2,162.5,279.2,164C279.2,164,279.2,164,279.2,164z"/>
	<path class="st3" d="M281.1,155.7c-0.4,0.3-2.4-1.4-5.4-1.5s-5.3,1.2-5.6,0.8c-0.2-0.2,0.2-0.8,1.2-1.4c1.4-0.8,2.9-1.2,4.5-1.1
		c1.6,0.1,3.1,0.7,4.3,1.7C281,154.9,281.3,155.5,281.1,155.7z"/>
	<path class="st3" d="M290.7,178.6c0-0.2,1.9-0.4,4.9-0.6c0.8,0,1.5-0.1,1.7-0.7c0.1-0.8,0-1.6-0.4-2.3c-0.6-1.9-1.3-3.9-1.9-6
		c-2.7-8.5-4.5-15.5-4.2-15.6s2.8,6.7,5.4,15.2c0.7,2.1,1.3,4.1,1.8,6c0.4,0.9,0.5,2,0.2,3c-0.3,0.5-0.7,0.9-1.3,1.1
		c-0.4,0.1-0.9,0.1-1.3,0.1C292.6,178.9,290.7,178.8,290.7,178.6z"/>
	<path class="st3" d="M281.7,180.2c0.5,0,0.3,3.3,3,5.7s6.1,2.3,6.1,2.8c0,0.2-0.8,0.6-2.3,0.5c-1.9-0.1-3.7-0.8-5.1-2.1
		c-1.4-1.2-2.2-3-2.3-4.8C281.1,180.9,281.5,180.2,281.7,180.2z"/>
	<path class="st3" d="M282.6,144c-0.3,0.8-3.3,0.2-6.9,0.4s-6.5,1-6.9,0.2c-0.2-0.4,0.4-1.1,1.5-1.8c3.2-1.8,7.1-2,10.5-0.5
		C282.1,142.9,282.7,143.6,282.6,144z"/>
	<path class="st3" d="M310.1,148.1c-0.6,0.6-2.6-0.2-5.1-0.4s-4.6,0.2-5.1-0.6c-0.2-0.4,0.2-1,1.1-1.6c2.6-1.4,5.9-1.1,8.2,0.7
		C310.1,147.1,310.3,147.8,310.1,148.1z"/>
	<path class="st3" d="M314.1,138.5c0,0-4.4-12.5-10.2-15.8c-6.9-3.9-10.5,3.8-17.2,1.5s-13.3-6-20.6-1.2c-8,5.3-4.6,9.6-5.6,18.2
		c-4,35.1-11,44.6-11.8,27.9c-0.1-1.8-5-3.6-5.3-11.3c-0.4-10,0-22.1,2.6-29c2.2-5.8,5.9-9.7,12.2-13.9c10-6.6,23.2-6,32.1-4.5
		S315.8,123.2,314.1,138.5z"/>
	<path class="st6" d="M250,168.7c0.1-2.9-2.2-5.4-5.2-5.4c-0.1,0-0.2,0-0.2,0c-3.7,0.1-7.8,2-8,9.5c-0.4,13.4,13.2,11,13.2,10.6
		S249.9,174.3,250,168.7z"/>
	<path class="st7" d="M246.9,178.3c-0.1,0-0.2,0.2-0.6,0.3c-0.6,0.2-1.2,0.2-1.8,0c-1.4-0.6-2.5-2.8-2.5-5.2c0-1.2,0.3-2.3,0.8-3.3
		c0.3-0.8,1-1.5,1.8-1.7c0.6-0.1,1.1,0.2,1.4,0.7c0.2,0.4,0.1,0.6,0.1,0.7s0.3-0.2,0.2-0.8c-0.1-0.3-0.3-0.6-0.5-0.9
		c-0.4-0.3-0.8-0.4-1.3-0.4c-1.1,0.2-2.1,0.9-2.5,2c-0.6,1.1-0.9,2.4-0.9,3.7c0,2.7,1.3,5.3,3.2,5.9c0.7,0.2,1.5,0.1,2.1-0.3
		C246.9,178.6,246.9,178.3,246.9,178.3z"/>
	<path class="st3" d="M251.7,142.9c1.7,1.3,3.4,2.6,5.5,3s4.5-0.7,5-2.8c0.2-0.9,0-2,0.7-2.7s2.1-0.5,3.2-0.3c4,0.6,7.9-1.8,9.2-5.6
		c0.9,1.5,3.2,1.6,4.8,0.7s2.6-2.4,3.9-3.7s3-2.4,4.7-2c1,0.2,1.9,0.8,2.9,0.8c1.8-0.1,2.7-2.1,3.1-3.8s0.7-3.8,2.2-4.6
		s3.2-0.2,4.8,0.1s3.7,0.1,4.2-1.5c0.2-0.8,0-1.7-0.5-2.5c-2-3.4-6.2-5-10-3.9c-1.5-6.3-7.8-10.2-14.1-8.8c-3,0.7-5.7,2.6-7.3,5.2
		c-4.6-4.7-12.2-4.8-16.9-0.2c-1,1-1.8,2.1-2.4,3.4c-4.5-1.5-9.4,1-10.9,5.5c-0.7,2.1-0.5,4.5,0.4,6.5c-2.5,1.2-4.7,3.5-4.9,6.3
		s2.3,5.7,5,5.1c-1.4,2.3-0.7,5.2,1.6,6.6c2.1,1.3,4.9,0.7,6.4-1.3"/>
	<path class="st8" d="M296.3,118.2c0,0,0,0.1,0,0.2s0,0.4-0.1,0.7c-0.2,0.9-0.6,1.7-1.1,2.5c-0.8,1.2-1.9,2.3-3.1,3
		c-1.7,1-3.6,1.4-5.6,1.2l0.2-0.3c0.3,1.2,0.2,2.6-0.5,3.7c-0.7,1.2-1.5,2.2-2.5,3.1c-0.5,0.5-1,1-1.6,1.4c-0.7,0.4-1.4,0.6-2.2,0.7
		c-1.6,0.1-3.2-0.5-4.2-1.8l0.5-0.1c-0.5,2.8-2.2,5.2-4.7,6.7c-1.3,0.9-2.9,1.3-4.5,1.2c-1.5-0.2-2.9-0.6-4.3-1.2l0.4-0.1
		c-0.8,1.6-2,2.9-3.4,3.9c-1.3,1-3.1,1.4-4.7,1c-2.8-0.8-4.9-3.2-5.3-6.1l0.3,0.2c-1.5,0.7-3.1,0.8-4.6,0.4
		c-1.2-0.3-2.2-0.8-3.1-1.6c-0.6-0.5-1-1.1-1.4-1.7c-0.1-0.2-0.2-0.5-0.3-0.7c0.5,0.9,1.1,1.6,1.8,2.3c0.9,0.7,1.9,1.2,3,1.5
		c1.5,0.4,3,0.2,4.4-0.5l0.3-0.1v0.3c0.4,2.7,2.4,4.9,5,5.7c1.5,0.3,3.1,0,4.3-0.9c1.4-1,2.5-2.2,3.2-3.7l0.1-0.2l0.2,0.1
		c1.3,0.6,2.7,1,4.1,1.1c1.5,0.1,2.9-0.3,4.1-1.1c2.3-1.4,3.9-3.7,4.4-6.3l0.1-0.6l0.4,0.5c0.9,1.1,2.3,1.7,3.7,1.6
		c0.7,0,1.3-0.2,1.9-0.6c0.5-0.4,1-0.9,1.5-1.4c0.9-0.9,1.8-1.9,2.4-3c0.6-1,0.8-2.2,0.5-3.3l-0.1-0.3l0.3,0.1
		c1.8,0.2,3.7-0.2,5.3-1.1c1.2-0.7,2.3-1.7,3.1-2.8C295.5,120.5,296,119.4,296.3,118.2z"/>
	<path class="st5" d="M325.2,309.8l1.4-14.2l4.9-52.2c-2.5-2.6-12.7-6.8-12.7-6.8l-25.2-9.1c0,0-2.4,6.9-21.4,7.2
		c-19.4,0.3-27.4-11.8-27.4-11.8c-9.7,3.1-30.8,11.1-30.8,11.1l-7.2,67.9l-0.4,22.4l-4.5,114.2c0,0,127-5.4,128.9-5.7l-5.1-41.1
		L325.2,309.8z"/>
	<polygon class="st9" points="288.7,276.3 288.7,303 303.3,314.9 318.4,303.1 319.2,277.1 	"/>
	<path class="st9" d="M204.6,370.1l-0.4,9.5c0,0,80.2-14.5,94.2-20.2c17.3-7,26.6-12.9,26.6-12.9l0.3-7.2L204.6,370.1z"/>
	<path class="st6" d="M210.2,239.7c0,0-18.1,2.9-21.8,26c-2.4,14.9-9.7,80.4,0.3,98c11.5,20.4,115.3-13.8,115.3-13.8l3.5-26.4
		l-80,5.3l-10-55.5L210.2,239.7z"/>
	<path class="st5" d="M181.2,317.2h50.7L218,232.6c0,0-29.1,5.9-32.9,36.3C181.3,299.5,181.2,317.2,181.2,317.2z"/>
	<path class="st3" d="M187.5,317.2c0.1,0,0.1,0,0.2,0h0.7l2.6,0l9.5-0.1l31.4-0.1l-0.3,0.3c-0.1-0.7-0.1-1.4-0.2-2.1
		c-1.1-12.8-2-24.3-2.7-32.7c-0.3-4.1-0.6-7.5-0.8-9.9c-0.1-1.1-0.1-2-0.2-2.7c0-0.3,0-0.5,0-0.7c0-0.1,0-0.2,0-0.2
		c0,0.1,0,0.2,0,0.2l0.1,0.7c0.1,0.7,0.2,1.6,0.3,2.7c0.2,2.4,0.5,5.8,0.9,9.9c0.7,8.4,1.8,20,2.9,32.7c0.1,0.7,0.1,1.4,0.2,2.1v0.3
		h-0.3l-31.4-0.1l-9.5-0.1l-2.6,0h-0.7C187.6,317.2,187.5,317.2,187.5,317.2z"/>
	<path class="st3" d="M329,265.8c0.1,0.6,0.1,1.2,0,1.7c0,1.1-0.1,2.7-0.2,4.7c-0.2,4-0.6,9.5-1.2,15.5s-1.2,11.5-1.7,15.4
		c-0.2,2-0.4,3.6-0.6,4.7c-0.1,0.6-0.2,1.1-0.3,1.7c0-0.6,0-1.1,0.1-1.7c0.1-1.2,0.3-2.8,0.4-4.7c0.4-4,0.9-9.5,1.5-15.5
		s1.1-11.4,1.4-15.4c0.1-1.9,0.3-3.5,0.3-4.7C328.8,266.9,328.9,266.3,329,265.8z"/>
	<path class="st3" d="M232.7,256.6c-0.2-0.3-0.4-0.6-0.6-0.9c-0.4-0.7-0.9-1.6-1.4-2.6c-1.5-2.9-3.3-5.6-5.4-8.1
		c-2.2-2.4-4.9-4.3-8-5.4c-1.3-0.4-2.6-0.6-4-0.8c0.4-0.1,0.7-0.1,1.1-0.1c1,0,2,0.2,3,0.5c3.2,1,6.1,2.9,8.3,5.4
		c2.2,2.5,4,5.3,5.4,8.3c0.6,1.1,1,2.1,1.3,2.7C232.4,255.9,232.6,256.2,232.7,256.6z"/>
	<path class="st9" d="M226.1,321c-0.1-0.5,8.8-2.7,8.8-2.7l-6.5-42l3.5,40.9h-6.5L226.1,321z"/>
	<path class="st10" d="M358.9,324.8l-1.6,21.6l-7.2,9l-17.5,23.3l21.3,1.4c0,0,24.9-6.2,28.6-13.9s3.9-41.4,3.9-41.4L358.9,324.8z"
		/>
	<path class="st10" d="M464,252.9l1.2-84c0.8-20-9.2-37.3-29.2-37.5l-1.8,0.1c-18.6,0.9-33.4,15.9-34,34.5
		c-0.6,17.3-1,36.5-0.4,45.7c1.1,19.2,20.4,21.2,20.4,21.2c0,0.6,0,5.4-0.1,11.1v9.5L464,252.9z"/>
	<path class="st11" d="M420.1,233c0,0,12.1,0.1,24.6-8.6c0,0-5.4,14.3-24.6,13.5L420.1,233z"/>
	<path class="st3" d="M431.4,175.8c0.4,0.1,2.4-1.3,5.5-2s5.6-0.4,5.9-0.7s-0.3-0.4-1.5-0.6c-1.6-0.2-3.2-0.1-4.8,0.3
		c-1.5,0.3-3,1-4.3,1.9C431.4,175.3,431.2,175.7,431.4,175.8z"/>
	<path class="st3" d="M434.5,181.7c0.1,1.4,1.2,2.5,2.7,2.5c1.4,0,2.5-1,2.6-2.4c0,0,0,0,0-0.1c0-1.4-1.2-2.5-2.6-2.5
		c-1.4-0.1-2.5,1-2.6,2.4C434.5,181.6,434.5,181.7,434.5,181.7z"/>
	<path class="st3" d="M423.5,196.7c0-0.2-1.8-0.4-4.8-0.6c-0.8,0-1.5-0.1-1.6-0.7c-0.1-0.8,0-1.6,0.4-2.2c0.6-1.9,1.3-3.8,2-5.8
		c2.7-8.3,4.6-15.1,4.3-15.2s-2.8,6.5-5.5,14.8l-1.9,5.9c-0.4,0.9-0.5,2-0.2,3c0.3,0.5,0.7,0.9,1.3,1c0.4,0.1,0.9,0.1,1.3,0.1
		C421.6,196.9,423.5,196.9,423.5,196.7z"/>
	<path class="st3" d="M433.8,162.6c0.3,0.7,2.9,0.2,5.9,0.5s5.6,1,6,0.3c0.2-0.3-0.3-1-1.3-1.6c-2.7-1.6-6.1-1.8-9-0.6
		C434.2,161.7,433.6,162.3,433.8,162.6z"/>
	<path class="st3" d="M403.2,167.8c0.3,0.6,2.8,0,5.9,0s5.5,0.4,5.9-0.2c0.1-0.3-0.3-0.8-1.4-1.3c-1.4-0.6-2.9-0.9-4.5-0.9
		c-1.5,0-3.1,0.4-4.5,1C403.6,167,403.1,167.5,403.2,167.8z"/>
	<path class="st10" d="M464.3,183.4c0.3-0.1,13.8-4.4,13.6,9.4s-14,10.8-14,10.4S464.3,183.4,464.3,183.4z"/>
	<path class="st11" d="M468.2,198c0.1,0,0.2,0.2,0.6,0.4c0.6,0.3,1.2,0.3,1.8,0.1c1.5-0.5,2.7-2.8,2.8-5.3c0-1.2-0.2-2.4-0.6-3.4
		c-0.3-0.9-0.9-1.6-1.8-1.9c-0.6-0.2-1.2,0.1-1.4,0.6c-0.2,0.4-0.1,0.7-0.2,0.7s-0.3-0.2-0.2-0.8c0.1-0.3,0.3-0.6,0.5-0.9
		c0.4-0.3,0.9-0.4,1.3-0.3c1.1,0.2,2.1,1.1,2.5,2.2c0.6,1.2,0.8,2.5,0.8,3.8c-0.1,2.8-1.6,5.4-3.6,5.9c-0.8,0.2-1.6,0.1-2.2-0.4
		C468.2,198.4,468.2,198,468.2,198z"/>
	<path class="st3" d="M403.5,174.3c0.3,0.3,2.7,0.2,5.7,1.2s5.1,2.6,5.4,2.4c0.2,0-0.1-0.5-1-1.2c-1.3-1-2.8-1.7-4.3-2.2
		c-1.5-0.5-3-0.7-4.6-0.7C403.7,173.9,403.3,174.2,403.5,174.3z"/>
	<path class="st3" d="M407.2,181.4c0.1,1.4,1.2,2.5,2.6,2.5c1.4,0,2.5-1,2.5-2.4c0,0,0,0,0-0.1c0-1.4-1.2-2.5-2.6-2.5
		C408.4,178.9,407.2,180,407.2,181.4C407.2,181.3,407.2,181.4,407.2,181.4z"/>
	<path class="st3" d="M374.7,148.2c0.2-0.8,0.8-1.4,1.5-1.8c1.5-0.9,3.2-0.7,4.9-0.7c4.2,0,8.3-0.9,12-2.7c-1.3-0.7-2.4-1.5-3.5-2.6
		c-2-2.2-3.2-5.4-2.1-8.2c0.1-0.6,0.5-1,1.1-1.2c0.9-0.2,1.6,0.6,2.1,1.3c1.9,2.2,3.7,3.2,6.6,3c1.7-0.1,3.5-0.5,5-1.4l0.2-0.2
		c0.7-0.7,1.4-1.3,2-2l0,0c5-4.8,9.4-8,13.8-9.7c6.4-2.4,17.1-3.2,23.7-1.3s12.5,7.5,13.2,14.3c3.8-3.1,9.4-2.9,13.9-0.9l0.1-0.1
		c5,1.9,7.8,7.4,9.1,12.6c0.1,0.3,0.1,0.6,0.2,0.9c1.6,2.8,3.9,5.1,6.6,6.8c0.5,0.3,1,0.7,1.1,1.2s-0.4,1-0.9,1.3
		c-1.2,0.8-2.7,1.4-4.1,1.6c0.4,1.2,0.9,2.4,1.6,3.6c0.5,1,1.2,2.2,0.7,3.1c-0.5,0.7-1.4,1.1-2.2,0.9c-0.8-0.2-1.6-0.6-2.3-1.1
		l1.6,4.1c-1.8,0.3-3.7,0.1-5.5-0.5c-1.2,4.8-2.6,10.9-3.9,14.2c-2.1-0.1-4.1-0.6-5.4,0.5c-1.8,1.5-2.7,4.5-5.6,3.3
		c-1.5-0.6-2.8-3.8-3.2-5.3c-3.1-10.3-3.9-21.1-2.4-31.7c-2-2.3-4.4-4.1-7.1-5.5l0.2,0.2c-5.3-2-11.3-4-16.4-1.6
		c-4,1.8-6.4,5.9-9.4,9c-5.3,5.9-12.9,9.3-20.9,9.4c-0.9,5.8-0.5,13.1-0.9,18.5l-4.8-8.8l0,0c-0.3-0.6-0.7-1.3-0.9-1.9l-0.1-0.2l0,0
		c-0.4-1.1-0.9-2.1-1.4-3.1l0,0c-3,2.5-7.2-1.5-4.8-4.6c0.5-0.6,1-1.1,1.7-1.6c-1.4,1.3-3.3,1.7-5.1,1.2c-1.8-0.6-3-2.3-2.8-4.2
		c0.2-1.3,1-2.3,2.2-2.8c-2.4,0.1-4.7-0.5-6.8-1.7C375.5,151.2,374.2,149.8,374.7,148.2z"/>
	<path class="st8" d="M449.2,137.2c0.7,0.5,1.3,1.1,1.9,1.8c1.5,1.9,2.4,4.1,2.8,6.4c0.3,1.6,0.4,3.2,0.4,4.9c0,1.8-0.2,3.6-0.4,5.6
		c-0.2,2.1-0.3,4.2-0.3,6.3c0,1.1,0.2,2.2,0.4,3.3c0.1,1.2,0.6,2.3,1.3,3.2c0.7,0.8,1.7,1.2,2.7,1c0.9-0.2,1.8-0.6,2.5-1.3
		c1.1-1.4,1.8-3.1,2-4.8h-0.4c0.5,1.5,1.3,2.8,2.2,4.1c0.9,1.2,2.2,1.9,3.7,2.1c0.7,0.1,1.4,0,2-0.3c0.6-0.3,1.1-0.7,1.4-1.3
		c0.3-0.5,0.5-1.1,0.5-1.7c0-0.6-0.2-1.1-0.6-1.5l-0.2,0.2c1.1,1.3,2.5,2.4,4,3.2c0.5,0.3,1,0.4,1.3,0.5c0.1,0.1,0.3,0.1,0.5,0.1
		c-0.1-0.1-0.3-0.1-0.4-0.2c-0.3-0.1-0.7-0.3-1.2-0.6c-1.5-0.8-2.8-1.9-3.9-3.2l-0.2,0.2c0.6,0.8,0.7,2,0.1,2.8
		c-0.3,0.5-0.7,0.9-1.2,1.1c-0.6,0.2-1.2,0.3-1.8,0.2c-1.3-0.2-2.6-0.9-3.4-2c-0.9-1.2-1.6-2.6-2.1-4l-0.3-0.6l-0.1,0.7
		c-0.2,1.7-0.8,3.3-1.9,4.6c-0.6,0.6-1.4,1-2.2,1.2c-0.9,0.2-1.7-0.2-2.3-0.8c-0.6-0.9-1-1.9-1.2-3c-0.2-1.1-0.3-2.2-0.3-3.2
		c0-2.1,0.1-4.1,0.3-6.2c0.2-2,0.4-3.9,0.4-5.7c0-1.7-0.1-3.3-0.4-4.9c-0.4-2.4-1.4-4.6-3-6.5C450.6,138.3,449.9,137.7,449.2,137.2z
		"/>
	<path class="st8" d="M389.5,154.3c0,0,0,0,0.1,0.1l0.5,0.4c0.3,0.2,0.5,0.4,0.8,0.5c0.4,0.2,0.8,0.5,1.1,0.6
		c2.5,1.2,5.3,1.8,8.1,1.7c4.2-0.2,8.2-1.6,11.6-4c4.1-3,7.6-6.8,10.2-11.2c1.5-2.3,2.6-4.6,4-6.8c1.2-2.1,2.7-4,4.4-5.7
		c1.6-1.5,3.5-2.6,5.6-3.2c1-0.2,1.9-0.3,2.9-0.3c0.9,0.1,1.8,0.3,2.6,0.6c1.5,0.5,2.8,1.4,3.9,2.5c0.8,0.8,1.5,1.8,2.1,2.9
		c0.4,0.9,0.7,1.9,0.9,2.9c0,0,0-0.1,0-0.2s0-0.4-0.1-0.6c-0.1-0.8-0.4-1.5-0.7-2.2c-0.5-1.1-1.2-2.1-2.1-3c-1.1-1.2-2.5-2-4-2.6
		c-0.9-0.3-1.8-0.5-2.7-0.6c-1-0.1-2,0-3,0.2c-2.2,0.6-4.2,1.7-5.8,3.3c-1.8,1.7-3.3,3.7-4.5,5.8c-1.3,2.2-2.5,4.5-4,6.8
		c-2.6,4.3-6,8.1-10.1,11.1c-3.4,2.4-7.3,3.8-11.4,4c-2.8,0.1-5.5-0.4-8.1-1.5C391.2,155.4,390.3,154.9,389.5,154.3z"/>
	<path class="st8" d="M388,145.9c0,0,0.2,0.2,0.7,0.5c0.6,0.4,1.3,0.8,2,1.1c1,0.5,2.1,0.9,3.2,1.1c2.7,0.7,5.5,0.9,8.2,0.5
		c1.1-0.2,2.2-0.4,3.3-0.8c0.7-0.2,1.4-0.5,2.1-0.9c0.3-0.1,0.5-0.2,0.7-0.4c0-0.1-1.1,0.4-2.9,1c-1.1,0.3-2.2,0.5-3.3,0.7
		c-1.3,0.2-2.7,0.2-4.1,0.1c-1.3-0.1-2.7-0.3-4-0.6c-1.1-0.3-2.1-0.6-3.2-1C389,146.4,388,145.8,388,145.9z"/>
	<path class="st11" d="M433.2,201.7c0,0-7,2-9.6,3l1.1,3c0.9,2.5,3.7,3.8,6.2,2.9c0.1,0,0.2-0.1,0.4-0.1c0.6-0.3,1.2-0.7,1.6-1.2
		c0.8-1,1.2-2.2,1.1-3.4C433.7,204.4,433.5,203.1,433.2,201.7z"/>
	<path class="st3" d="M423.5,204.7c-0.1-0.2,4.1-1.8,9.5-3.4l0.5-0.2l0.1,0.5c0,0.1,0,0.1,0,0.2c0.3,1.3,0.5,2.7,0.6,4
		c0.1,1.2-0.3,2.4-1,3.3c-1.3,1.6-2.7,1.7-2.7,1.6s1.1-0.5,2.1-2c1.2-1.4,0.6-4,0-6.7c0-0.1,0-0.2,0-0.2l0.6,0.4
		C428,203.8,423.6,204.9,423.5,204.7z"/>
	<path class="st8" d="M376,455.4l135.7-0.6l-7.5-115.5l-0.6-34.4l-8-62.4l-30.3-6.5c0,0-7.6,14-27,13.7c-19-0.3-18.3-8.3-18.3-8.3
		l-32.2,12.1c0,0-17.7,8.6-20.9,16.9c-3.2,8.1-9.3,54.8-9.3,54.8l27.8-0.3l-2.5,88.4L376,455.4z"/>
	<path class="st3" d="M386.4,283.9c0,0.2,0.1,0.4,0.1,0.6c0,0.5,0.1,1,0.1,1.8c0.1,1.5,0.1,3.7,0.1,6.4c0,5.4-0.1,12.9-0.3,21.2
		s-0.6,15.8-0.9,21.2c-0.1,2.6-0.3,4.8-0.4,6.4c-0.1,0.7-0.1,1.3-0.1,1.7c0,0.2,0,0.4-0.1,0.6c0-0.2,0-0.4,0-0.6c0-0.5,0-1,0-1.8
		l0.2-6.4c0.2-5.5,0.4-12.9,0.7-21.2s0.4-15.8,0.5-21.2c0-2.7,0-4.9,0-6.4c0-0.7,0-1.3,0-1.7C386.3,284.3,386.3,284.1,386.4,283.9z"
		/>
	<path class="st8" d="M494.8,243.4c0,0,13.7,1.4,21,11c6.7,8.8,19.7,36.5,19.3,37.2s-30.6,20.5-30.6,20.5l-7.5-13.8L494.8,243.4z"/>
	<path class="st3" d="M501.4,257c0.1,0.2,0.1,0.4,0.1,0.5c0,0.4,0.1,0.9,0.1,1.5c0.1,1.3,0.2,3.2,0.3,5.6c0.2,4.7,0.4,11.2,0.5,18.4
		s0.2,13.7,0.4,18.4c0.1,2.3,0.1,4.2,0.2,5.6c0,0.6,0,1.1,0,1.5c0,0.2,0,0.4,0,0.5c0-0.2-0.1-0.3-0.1-0.5c0-0.4-0.1-0.9-0.1-1.5
		c-0.1-1.3-0.2-3.2-0.3-5.6c-0.2-4.7-0.4-11.2-0.5-18.4s-0.2-13.7-0.4-18.4c-0.1-2.3-0.1-4.2-0.2-5.6c0-0.6,0-1.1,0-1.5
		C501.4,257.4,501.4,257.2,501.4,257z"/>
	<path class="st12" d="M312.4,377.2c0,0,4.5,3,7.3,2.6s12.1-2.6,12.1-2.6s0.2,0.8,2.6,2.7s17.3,4.3,23.6,3.5s16.8-4.7,16.8-4.7
		l-3.2-17.8l-28,4.4l-31.2,7.2L312.4,377.2L312.4,377.2z"/>
	<path class="st10" d="M321.8,362.7c0,0-2.5,10.8-1.1,12.3s3,1.9,3.9-0.2c1.1-3.1,2-6.3,2.7-9.5l1.1-2.6c0,0-1.5,17.7,1.5,18.7
		s4.7,0,4.7,0s6,4.5,6.4-2.6c0.4-5.4,1.3-10.7,2.6-16l1.4-2.3v4c0,0-3.2,9.4-1.4,10.7s3.7,2.3,4.8,0.8s6.4-12.5,7.5-16.4
		c0,0,3.5,5.1,8.5,5.2c3.9,0,6.1-1.6,4.5-4s-5.5-4.4-5.5-4.4l-5.1-11.9l-12.4-2.9h-14.1L321.8,362.7z"/>
	<path class="st13" d="M301.7,355c0,0,11.9,7.1,17.4,8.4s34.8-3.9,34.5-5.7s-4.1-3.5-6.8-3.9s-10.4-1.7-10.4-1.7h20.7l10,6.3
		c0,0,3.5-1.4,2.4-4.3c-0.6-1.5-8.4-7.6-8.4-7.6l-19-3.8l-33.8-1.3L301.7,355z"/>
	<path class="st6" d="M312.8,323.3c0,0,33.7,5.7,34.5,6.6s9.4,10.7,9.4,10.7s13,4.5,11.3,7.4s-5.5,1.1-5.5,1.1s5.3,8.3,2.8,10
		s-5.1,0.6-7-1.9s-7.4-11.5-7.4-11.5s4.5,18.5,2.3,19s-5.8,0.8-7.4-4c-0.8-2.4-1.4-4.9-1.9-7.4l-7.2-11.9c0,0,2.8,21.7,1.1,23.5
		c0,0-4.3,1.4-5.8-2.4s-3.6-12.4-3.6-12.4l-3.6-9.5l-0.4,6c0,0,3,11.1,1.1,11.9s-4.3,0-5.7-2.5c-1.4-2.5-2.5-5.2-3.4-8
		c-0.4-1.5-2.4-6.5-2.4-6.5l-7.2-0.9L312.8,323.3z"/>
	<path class="st7" d="M354.3,337.7c1.6,1.9,3.1,3.8,4.5,5.9c1.5,2,2.8,4,4,6.2c-1.6-1.9-3.1-3.8-4.5-5.9
		C356.9,342,355.5,339.9,354.3,337.7z"/>
	<path class="st7" d="M343.1,331.5c0.6,0.6,1.1,1.2,1.6,1.9c1.2,1.6,2.2,3.3,3.2,5c1,1.7,1.8,3.5,2.6,5.3c0.4,0.7,0.7,1.5,0.8,2.3
		c-0.5-0.7-0.9-1.4-1.2-2.2c-0.7-1.4-1.6-3.2-2.7-5.2s-2.2-3.8-3-5.1C343.9,332.9,343.5,332.2,343.1,331.5z"/>
	<path class="st7" d="M333.2,332.5c0,0,0.6,0.2,1.2,1c0.8,0.9,1.4,2,1.8,3.2c0.4,1.2,0.6,2.3,0.7,3.6c0.1,0.5,0.1,1,0,1.5
		c-0.2-0.5-0.3-0.9-0.4-1.5c-0.2-1.2-0.5-2.3-0.9-3.5c-0.4-1.1-0.9-2.2-1.6-3.1C333.5,332.9,333.2,332.5,333.2,332.5z"/>
	<path class="st7" d="M321.2,333.5c0-0.1,0.5,0.1,1.2,0.6c0.9,0.6,1.6,1.5,2.1,2.5c0.5,1,0.7,2.1,0.7,3.2c0,0.5-0.1,0.9-0.3,1.3
		C325,338.1,323.6,335.2,321.2,333.5L321.2,333.5z"/>
	<path class="st9" d="M383.8,382.7c2.4,0,94.1-6.7,94.1-6.7l32.3-6.7l-8-35.8l-118.2,38L383.8,382.7z"/>
	<path class="st12" d="M371.6,360.9l84.9-19.5c0,0,77.3-45,78.4-45.8s-6,45.8-6,45.8s-49.2,25.9-63.4,29.3c-7.7,1.8-93.3,9-93.3,9
		L371.6,360.9z"/>
	<path class="st3" d="M580.6,175.7c5.2-5.6,18-4.7,21-0.9c4.7-2.2,10.3-0.2,12.7,4.4l13.6,3.1c2.3,0.5,4.7,1.1,6.5,2.7
		s2.6,4.5,1.1,6.4c4.8,1.3,6.6,8.4,3,11.8c1.8,2.2,1.6,5.4-0.6,7.3c-0.1,0.1-0.1,0.1-0.2,0.2c3.7,4.5,6.6,9.7,8.6,15.2
		c0.8,2.3,1.5,4.9,0.6,7.2s-3.9,3.8-5.9,2.4c1.3,1.9,1.4,4.5,0.2,6.5c2.3,0.1,3,3.6,1.3,5.3s-4.2,1.8-6.5,1.7s-4.8-0.2-6.7,1.1
		c0,0.6,0.3,1.1,0.7,1.5c3.9,3.2,5,8.8,2,12.9c-0.3,0.4-0.5,0.7-0.8,1c-1.3,1.9-4.7,3.6-6.7,4.6c-5.2,2.7-8.3,2.1-14.1,2.9
		c1.5,3.8-8,12-18.7,3.7c-21.6,5.5-37.1,7.5-59.4,7.4c-3.2,0-7-0.5-8.4-3.4c-2.6,0.7-5.4-0.6-7.2-2.5c-1.8-2-3.2-4.3-4.2-6.8
		c-5.6-1.7-9.6-6.7-9.8-12.6c-3.7-3-6-7.5-6.3-12.2c-5.3-1.7-8.2-8.6-5.6-13.6c1.2-6.6,3.5-12.9,6.8-18.7c-3.6-0.8-5-5.8-3.4-9.1
		s4.9-5.6,8-7.5c-2.7,0.7-5.1-2.8-4.4-5.5s3.2-4.6,5.6-6c3.6-2.1,7.4-3.7,11.3-4.9c1.3-4.8,7.5-10.2,12-12.3
		C544.9,160.6,557.6,158.6,580.6,175.7"/>
	<path class="st12" d="M529.8,209.7c1.6-12.5,10.8-27.3,23.2-25.2l38.3,12.2c3.8,0.6,6.4,4,6.1,7.9l-6.5,83.3
		c-0.8,10.8-9.2,19.6-20,21l0,0c-12.6,1.5-24-7.4-25.5-19.9c-0.1-1.1-0.2-2.2-0.2-3.2c0.1-5.7,0.2-10,0.2-10s-15.8-3.6-17.8-24.7
		C526.5,240.5,528,223.6,529.8,209.7z"/>
	<path class="st3" d="M536.8,226.6c-0.1,1.4,1,2.7,2.4,2.9c1.4,0.2,2.7-0.8,2.9-2.2c0,0,0,0,0-0.1c0.1-1.4-1-2.7-2.4-2.9
		C538.3,224.2,537,225.2,536.8,226.6C536.8,226.6,536.8,226.6,536.8,226.6z"/>
	<path class="st3" d="M532.9,218.8c0.3,0.4,2.4-1,5.3-0.8s4.9,1.8,5.2,1.4c0.2-0.1-0.1-0.8-1-1.5c-1.2-0.9-2.6-1.5-4.2-1.6
		c-1.5-0.1-3,0.3-4.2,1.1C533.1,218,532.8,218.6,532.9,218.8z"/>
	<path class="st3" d="M563.2,227.7c-0.1,1.4,1,2.7,2.4,2.9c1.4,0.2,2.7-0.8,2.9-2.2c0,0,0,0,0-0.1c0.1-1.4-1-2.7-2.4-2.9
		C564.7,225.3,563.4,226.3,563.2,227.7C563.2,227.7,563.2,227.7,563.2,227.7z"/>
	<path class="st3" d="M561.2,221.1c0.3,0.4,2.4-1,5.3-0.8s4.9,1.8,5.2,1.4c0.2-0.1-0.1-0.8-1-1.5c-1.2-0.9-2.6-1.5-4.2-1.6
		c-1.5-0.1-3,0.3-4.2,1.1C561.4,220.3,561,220.9,561.2,221.1z"/>
	<path class="st3" d="M549.4,241.8c0-0.2-1.7-0.6-4.6-1.1c-0.7-0.1-1.4-0.3-1.5-0.8c0-0.8,0.2-1.5,0.6-2.1l2.5-5.5
		c3.5-7.8,6.1-14.2,5.8-14.3s-3.4,6.1-6.9,13.8l-2.4,5.5c-0.5,0.9-0.7,1.9-0.6,2.9c0.2,0.5,0.6,1,1.1,1.1c0.4,0.1,0.8,0.2,1.2,0.2
		C547.6,241.8,549.4,241.9,549.4,241.8z"/>
	<path class="st14" d="M545.3,275.7c9.8,0.8,19.6-1.2,28.4-5.7c0,0-7.7,13.9-28.4,10.6L545.3,275.7z"/>
	<path class="st3" d="M560.6,209.2c0.2,0.8,3.1,0.6,6.5,1.2s6,1.7,6.5,1c0.2-0.3-0.2-1.1-1.3-1.9c-2.9-2.1-6.5-2.7-9.9-1.7
		C561.2,208.2,560.5,208.8,560.6,209.2z"/>
	<path class="st3" d="M534.5,208.9c0.5,0.7,2.5,0.1,4.9,0.2s4.4,0.7,4.9,0.1c0.2-0.3-0.1-1-0.9-1.7c-2.3-1.7-5.4-1.8-7.9-0.2
		C534.7,208,534.3,208.6,534.5,208.9z"/>
	<path class="st3" d="M520.2,219.6c0.1-3.3,1.4-6.5,3.6-8.9c1.2-1.3,2.8-2.2,3.9-3.7c2.4-3.1,2.2-7.3,3.2-11.1
		c1.4-4.9,5.1-8.8,10-10.4c3.9-1.3,8.4-1.1,12.1-3c2.7-1.4,4.8-3.9,7.7-5.1c5.5-2.4,11.8,0.5,16.8,3.7c1,4.1-1.7,7.6-4.2,10.9
		c-2.6,3.4-6.6,5.5-10.8,5.7c-3.3,0.1-7.1-0.7-9.4,1.6s-1.6,6.7-3.6,9.5c-2.9,4-9.3,2.3-13.6,4.7c-3.3,1.9-4.8,5.8-6.5,9.1
		s-4.6,6.9-8.4,6.6C520.3,226.1,520.1,222.8,520.2,219.6z"/>
	<path class="st3" d="M569.3,188.4c9.6,0,19,1.9,27.9,5.5c2.6,1.1,5.3,2.4,6.8,4.9c1.3,2.1,1.4,4.8,1.3,7.3
		c-0.2,7.8-3.5,17.3-6.7,24.5l-9.9,5.7c-7.5-1.9-3.8-14.8-3.3-21.3c-5.3-2.5-8.7-7.9-8.8-13.7C572.4,198.3,569.7,193.6,569.3,188.4z
		"/>
	<path class="st12" d="M588.9,233.4c0.4-4.5,5.9-5.2,9.7-2.9c2.1,1.3,3.6,3.8,3.3,8.6c-1,12.6-13.5,9.1-13.5,8.7
		S588.5,238.7,588.9,233.4z"/>
	<path class="st14" d="M592.7,243.4c0.1,0,0.2,0.2,0.6,0.4c0.5,0.3,1.1,0.3,1.6,0.2c1.4-0.4,2.7-2.4,2.9-4.7c0.1-1.1,0-2.2-0.4-3.2
		c-0.2-0.8-0.8-1.5-1.5-1.8c-0.5-0.2-1.1,0-1.3,0.5c-0.2,0.3-0.1,0.6-0.2,0.6s-0.3-0.2-0.1-0.8c0.1-0.3,0.3-0.6,0.6-0.8
		c0.4-0.2,0.8-0.3,1.2-0.2c1,0.3,1.9,1.1,2.2,2.1c0.5,1.1,0.6,2.4,0.5,3.6c-0.3,2.5-1.8,4.8-3.6,5.2c-0.7,0.2-1.4,0-2-0.5
		C592.7,243.7,592.6,243.4,592.7,243.4z"/>
	<path class="st8" d="M598.7,251.4c0.7,0,1.3,0,2-0.1c0.8-0.1,1.5-0.3,2.2-0.6l-0.2-0.1c0.5,3.4,3.7,5.8,7.1,5.4
		c1-0.1,2-0.6,2.9-1.2h-0.2c0.4,0.6,1,1,1.6,1.1c0.7,0.2,1.4,0.1,2.1-0.1c0.7-0.2,1.3-0.7,1.7-1.3c0.4-0.6,0.6-1.3,0.7-2.1
		c0.1-1.5-0.4-3-1.3-4.2c-1-1.2-2.1-2.3-3.3-3.3v0.3c1.1-0.7,1.8-1.8,2.1-3c0.3-1.2,0.2-2.6-0.3-3.7c-0.5-1.2-1.2-2.3-2.2-3.2
		c-0.9-0.9-1.9-1.8-3-2.6v0.3c0.9-1,1.4-2.3,1.3-3.6c-0.1-1.4-0.5-2.7-1.4-3.8c-1.6-2.1-3.9-3.3-6.1-4.4l0.1,0.2
		c1.2-4.5-1.5-9.1-5.9-10.3c-1-0.3-2-0.3-3.1-0.2l0.2,0.2c0.5-2.2-0.1-4.5-1.6-6.2c-1.3-1.6-3.2-2.6-5.3-2.7l0.2,0.2
		c0-2.2-1-4.2-2.8-5.6c-1.5-1.2-3.4-1.8-5.3-1.6l0.1,0.1c-0.1-1.2-0.4-2.3-1-3.3c-0.5-0.9-1.1-1.7-1.9-2.4c-1.2-1.1-2.7-1.8-4.3-1.9
		h-0.5c-0.2,0-0.3,0-0.5,0c-0.3,0-0.5,0-0.8,0.1c-0.4,0.1-0.8,0.2-1.2,0.3l-0.7,0.3l-0.2,0.1l0.2-0.1l0.7-0.3
		c0.4-0.1,0.8-0.2,1.2-0.3c0.3,0,0.5-0.1,0.8-0.1h0.4l0.5,0.1c1.6,0.2,3,0.9,4.2,1.9c0.7,0.7,1.3,1.4,1.8,2.3c0.6,1,0.9,2,0.9,3.1
		v0.1h0.1c1.8-0.2,3.7,0.3,5.1,1.5c1.6,1.3,2.6,3.3,2.6,5.3v0.2h0.2c4,0.3,7,3.8,6.7,7.7c0,0.3-0.1,0.5-0.1,0.8l-0.1,0.2h0.2
		c4.4-0.5,8.4,2.6,8.9,7c0.1,1,0,2-0.2,3v0.1l0.1,0.1c2.2,1.1,4.5,2.3,6,4.3c0.8,1,1.2,2.3,1.3,3.6c0.1,1.2-0.3,2.5-1.2,3.4
		l-0.2,0.1l0.2,0.1c2,1.6,4.1,3.3,5,5.6c0.4,1.1,0.5,2.3,0.3,3.5c-0.2,1.1-0.9,2.1-1.9,2.7l-0.2,0.1l0.2,0.2c1.2,0.9,2.3,2,3.2,3.2
		c0.9,1.1,1.3,2.6,1.3,4c0,1.4-0.9,2.6-2.1,3.1c-1.2,0.5-2.6,0.2-3.3-0.9l-0.1-0.1l-0.1,0.1c-1.9,1.4-4.3,1.6-6.4,0.5
		c-1.7-0.9-2.9-2.6-3.2-4.5v-0.1l-0.1,0.1c-0.7,0.3-1.4,0.5-2.2,0.6c-0.7,0.1-1.3,0.1-2,0.1c-1.1,0-2.1-0.2-3.1-0.6
		c-0.6-0.2-1.1-0.7-1.4-1.3c-0.2-0.4-0.2-0.6-0.2-0.6v0.2c0,0.2,0.1,0.3,0.2,0.5c0.3,0.6,0.8,1.1,1.4,1.3"/>
	<path class="st8" d="M642.4,236c0.2-0.2,0.4-0.5,0.5-0.8c1.1-2.1,1-4.5-0.2-6.5c-1-1.6-2.7-2.7-4.5-3l0.1,0.1
		c0.5-2.1,0.1-4.4-1-6.3c-0.6-1.1-1.4-2-2.4-2.7c-1.1-0.7-2.2-1.2-3.4-1.7c-0.6-0.3-1.1-0.6-1.6-1c-0.5-0.4-0.9-1-1.1-1.6
		c-0.5-1.2-0.7-2.7-1.4-4c-1.5-2.8-4.5-4.4-7.7-4l0.2,0.2c0.9-5.5-2.9-10.7-8.4-11.6c-0.9-0.1-1.7-0.2-2.6-0.1l0.2,0.2
		c0.6-4.9-2.9-9.3-7.7-9.9c-2.1-0.3-4.2,0.2-6,1.4h0.2c-1.2-1.2-2.7-2.2-4.4-2.8c-1.5-0.6-3-0.9-4.5-1.1c-2.5-0.3-5-0.2-7.5,0.4
		c-1.6,0.3-3.1,0.9-4.5,1.8c-0.4,0.2-0.7,0.5-1,0.7c-0.1,0.1-0.2,0.2-0.3,0.3c0,0,0.5-0.4,1.4-0.9c1.4-0.8,2.9-1.4,4.5-1.7
		c2.4-0.5,5-0.6,7.4-0.3c1.5,0.2,3,0.6,4.5,1.1c1.6,0.6,3,1.6,4.1,2.8l0.1,0.1l0.1-0.1c4-2.6,9.3-1.4,11.8,2.5
		c1.1,1.7,1.6,3.7,1.3,5.7v0.2h0.2c5.4-0.5,10.2,3.4,10.7,8.8c0.1,0.8,0.1,1.7-0.1,2.5v0.2h0.3c3-0.3,5.8,1.1,7.3,3.8
		c0.7,1.2,0.8,2.7,1.4,3.9c0.3,0.7,0.7,1.2,1.2,1.7c0.5,0.4,1.1,0.8,1.7,1c1.2,0.4,2.3,1,3.4,1.6c1,0.7,1.8,1.6,2.3,2.6
		c1.1,1.8,1.5,4,1,6.1v0.1h0.1c1.8,0.3,3.4,1.3,4.4,2.9c0.7,1.1,1.1,2.5,1,3.9c-0.1,0.9-0.3,1.7-0.6,2.5
		C642.6,235.7,642.4,236,642.4,236z"/>
	<path class="st8" d="M521.3,237.4c0.2-0.3,0.2-0.7,0.1-1c-0.1-0.4-0.4-0.8-0.7-1.1c-0.5-0.4-1-0.6-1.5-0.8c-0.7-0.2-1.4-0.5-2-0.9
		c-0.7-0.5-1.2-1.2-1.4-2.1c-0.3-0.9-0.4-1.9-0.3-2.9c0.1-1,0.2-2.1,0.3-3.3c0.1-2.4-0.9-4.9-1.5-7.5c-0.3-1.4-0.3-2.8-0.1-4.2
		c0.2-1.5,1.1-2.7,2.4-3.5c1.4-0.7,2.9-1.1,4.5-1.4c0.8-0.2,1.6-0.5,2.3-1c0.7-0.5,1.3-1.2,1.6-2c0.6-1.6,1.1-3.3,1.4-5
		c0.2-0.8,0.5-1.6,0.9-2.4c0.4-0.7,1.1-1.3,1.9-1.6c1.1-0.3,2.3-0.4,3.5-0.4c0.6,0,1.2-0.2,1.8-0.4c0.6-0.3,1.1-0.7,1.4-1.2
		c0.6-1,1.1-2.1,1.4-3.2c0.3-1,0.9-2,1.6-2.8c1.4-1.6,3.4-2.5,5.6-2.5c2,0,3.9,0.7,5.3,2l0.2,0.1l0.1-0.2c1.5-3.1,4.3-5.4,7.6-6.4
		c1.4-0.4,2.8-0.5,4.2-0.3c1.2,0.1,2.4,0.5,3.5,1c1.5,0.8,2.8,2,3.6,3.5c0.2,0.4,0.4,0.8,0.6,1.2l0.2,0.3v0.1c0,0,0,0,0-0.1
		l-0.1-0.3c-0.2-0.4-0.3-0.8-0.6-1.2c-0.8-1.5-2.1-2.8-3.6-3.6c-1.1-0.6-2.3-0.9-3.5-1.1c-1.4-0.2-2.9-0.1-4.3,0.3
		c-3.4,0.9-6.3,3.3-7.8,6.5h0.3c-1.5-1.4-3.5-2.2-5.6-2.1c-2.2,0-4.3,1-5.8,2.6c-0.8,0.9-1.4,1.9-1.7,3c-0.3,1.1-0.7,2.1-1.3,3.1
		c-0.7,0.9-1.8,1.4-2.9,1.4c-1.2,0-2.4,0.1-3.6,0.4c-0.9,0.3-1.6,1-2.1,1.8c-0.5,0.8-0.8,1.6-1,2.5c-0.3,1.7-0.8,3.3-1.4,4.9
		c-0.3,0.7-0.9,1.4-1.5,1.8c-0.7,0.4-1.4,0.8-2.2,1c-1.6,0.3-3.1,0.8-4.5,1.5c-0.7,0.4-1.3,1-1.7,1.6c-0.4,0.7-0.7,1.4-0.8,2.1
		c-0.2,1.4-0.2,2.9,0.1,4.3c0.6,2.7,1.6,5.1,1.5,7.4c0,1.1-0.2,2.3-0.2,3.3c-0.1,1,0,2,0.3,3c0.2,0.9,0.8,1.6,1.5,2.1
		c0.6,0.4,1.3,0.7,2,0.9c0.6,0.1,1.1,0.4,1.5,0.8c0.3,0.3,0.6,0.6,0.7,1C521.3,236.7,521.4,237.1,521.3,237.4z"/>
	<path class="st8" d="M497.1,217.4c0,0,0-0.1,0.1-0.2l0.4-0.7l1.4-2.7c0.6-1.2,1.3-2.6,2.2-4.3c1-1.9,2.5-3.4,4.3-4.5
		c1-0.5,2.2-0.9,3.4-1.4c0.6-0.3,1.2-0.6,1.8-1c0.6-0.4,1-1,1.3-1.6c0.6-1.3,0.7-2.8,1.2-4.1c0.2-0.7,0.7-1.3,1.2-1.7
		c0.6-0.4,1.3-0.7,2-0.9c0.8-0.2,1.5-0.5,2.3-0.8c0.8-0.4,1.4-1,1.8-1.8c0.8-1.5,0.8-3.3,1.2-4.9c0.1-0.8,0.4-1.6,0.9-2.3
		c0.5-0.7,1.2-1.1,2-1.3c1.7-0.3,3.5,0.3,5.3,0c0.9-0.1,1.8-0.6,2.5-1.2c0.6-0.6,1.2-1.4,1.6-2.1c0.5-0.7,0.9-1.5,1.4-2.2
		c0.5-0.7,1.1-1.2,1.9-1.6c1.5-0.7,3.2-0.3,4.8,0.1c1.5,0.5,3.2,0.7,4.8,0.5c1.5-0.4,2.9-1,4.2-1.8c1.2-0.8,2.4-1.5,3.8-2
		c2.4-0.8,5.1-0.8,7.5-0.1c2,0.6,3.9,1.6,5.5,3c1.2,1.1,2.2,2.3,3,3.7c0.5,0.9,0.9,1.8,1.3,2.7l0.3,0.7c0,0.1,0.1,0.2,0.1,0.2
		c0-0.1,0-0.2-0.1-0.3c-0.1-0.2-0.1-0.4-0.2-0.8c-0.3-1-0.7-1.9-1.2-2.8c-0.8-1.4-1.8-2.7-3-3.8c-1.6-1.4-3.5-2.5-5.6-3.1
		c-2.5-0.7-5.2-0.7-7.7,0.1c-1.3,0.5-2.6,1.2-3.8,2c-1.3,0.8-2.6,1.4-4.1,1.8c-1.6,0.2-3.2,0-4.7-0.5c-0.8-0.2-1.6-0.4-2.5-0.5
		c-1.8-0.2-3.6,0.5-4.6,2c-0.5,0.7-1,1.4-1.5,2.2c-0.4,0.8-1,1.5-1.6,2.1c-0.6,0.6-1.4,1-2.2,1.1c-1.7,0.3-3.5-0.4-5.3,0
		c-0.9,0.2-1.7,0.7-2.2,1.5c-0.5,0.7-0.8,1.6-0.9,2.4c-0.3,1.7-0.4,3.4-1.1,4.8c-0.4,0.7-0.9,1.3-1.6,1.6c-0.7,0.3-1.4,0.6-2.2,0.8
		c-0.8,0.2-1.5,0.5-2.2,1c-0.6,0.5-1.1,1.1-1.4,1.9c-0.5,1.4-0.6,2.9-1.1,4.1c-0.6,1.2-1.7,2-2.9,2.5c-1.2,0.5-2.4,0.9-3.4,1.4
		c-1.9,1.1-3.4,2.7-4.4,4.6c-0.9,1.6-1.6,3.1-2.2,4.3s-1,2.1-1.3,2.8c-0.1,0.3-0.2,0.5-0.3,0.7C497.1,217.2,497.1,217.3,497.1,217.4
		z"/>
	<path class="st8" d="M510.8,204.3c-0.1,0-0.2,0-0.2-0.1c-0.2,0-0.5,0-0.7,0.1c-0.8,0.5-1.3,1.3-1.3,2.2c0,0.6,0.1,1.3,0.2,1.9
		c0.2,0.7,0.3,1.5,0.3,2.2c-0.1,0.8-0.4,1.6-0.9,2.3c-0.5,0.8-1.1,1.5-1.7,2.4c-0.6,0.9-0.7,2.1-0.4,3.2c0.4,1.1,1.2,2,1.5,3.1
		c0.3,1.2,0.2,2.4-0.4,3.5c-0.5,1.1-1.2,2.2-1.7,3.5c-0.3,0.6-0.4,1.3-0.4,2.1c0,0.7,0.1,1.4,0.4,2.1c0.7,1.3,1.5,2.5,2.3,3.7
		c0.9,1.1,1.4,2.6,1.3,4c-0.4,1.5-0.9,2.9-1.6,4.2c-0.3,0.7-0.5,1.5-0.5,2.3c0,0.8,0.2,1.6,0.6,2.3c0.7,1.3,1.6,2.5,2.7,3.6
		c1,1,1.7,2.3,2.2,3.6c0.3,1.4,0.7,2.7,1.2,4c0.3,0.6,0.7,1.2,1.3,1.6c0.5,0.4,1.1,0.7,1.8,0.9c0.6,0.2,1.2,0.4,1.7,0.7
		c0.5,0.3,1,0.6,1.5,1c0.8,0.8,1.5,1.7,2,2.7c0.6,1,1.1,1.9,1.7,2.7c1.1,1.5,2.6,2.7,4.3,3.3c1.3,0.5,2.7,0.6,4.1,0.5
		c0.9-0.1,1.7-0.3,2.5-0.7c0.3-0.1,0.5-0.3,0.8-0.4c-1,0.5-2.2,0.9-3.3,1c-1.4,0.1-2.7-0.1-4-0.5c-1.7-0.6-3.2-1.8-4.2-3.3
		c-0.6-0.8-1.1-1.8-1.7-2.7c-0.6-1-1.2-2-2.1-2.8c-0.5-0.4-1-0.8-1.5-1.1c-0.6-0.3-1.2-0.5-1.8-0.7c-0.6-0.2-1.2-0.5-1.7-0.9
		c-0.5-0.4-0.9-0.9-1.2-1.5c-0.5-1.3-0.9-2.6-1.2-3.9c-0.5-1.4-1.2-2.7-2.2-3.8c-1-1.1-1.9-2.3-2.6-3.6c-0.3-0.7-0.5-1.4-0.5-2.1
		c0-0.8,0.2-1.5,0.5-2.2c0.7-1.4,1.3-2.8,1.6-4.3c0.1-0.8,0-1.6-0.3-2.3c-0.3-0.7-0.6-1.4-1.1-2c-0.9-1.1-1.7-2.3-2.3-3.6
		c-0.3-0.6-0.4-1.3-0.4-2c0-0.7,0.1-1.3,0.4-1.9c0.5-1.2,1.2-2.3,1.7-3.5c0.6-1.1,0.8-2.5,0.4-3.7c-0.4-1.2-1.2-2.1-1.5-3.1
		c-0.4-1-0.2-2.1,0.3-2.9c0.5-0.9,1.1-1.6,1.6-2.4c0.5-0.7,0.9-1.6,1-2.4c0-0.8-0.1-1.5-0.3-2.2c-0.2-0.6-0.3-1.2-0.3-1.9
		c0-0.9,0.5-1.7,1.2-2.2C510.2,204.3,510.5,204.3,510.8,204.3z"/>
	<path class="st3" d="M642.2,235.6c0.3,0,0.7,0,1-0.1c1-0.2,1.9-0.5,2.7-1.1c1.3-0.9,2.3-2.2,2.7-3.7c0.6-2,0.3-4.2-0.9-6
		c-0.7-1-1.6-1.8-2.5-2.6c-1-0.8-1.8-1.8-2.3-3c-0.4-1.3-0.3-2.7,0.3-4c0.5-1.4,1.3-2.7,1.8-4.1c2.1-6.5-1.4-13.5-7.9-15.7
		c-0.4-0.1-0.8-0.2-1.1-0.3l0.1,0.3c0.6-0.8,1-1.7,1.2-2.7c0.1-1,0.1-2-0.1-3c-0.2-1-0.6-1.9-1.2-2.8c-0.6-0.9-1.3-1.6-2.1-2.3
		c-2.4-1.8-5.3-3-8.3-3.5c-2.8-0.6-5.7-0.8-8.5-0.5l0.2,0.2c-0.1-3.3-2-6.4-4.9-7.9c-1.4-0.7-2.9-1-4.4-0.9c-1.4,0.1-2.8,0.5-4.2,1
		c-0.6,0.2-1.3,0.4-2,0.4c-0.6,0-1.3,0-1.9-0.2c-1.2-0.4-2.3-1-3.3-1.7c-1-0.6-2.1-1.2-3.2-1.5c-1-0.3-2.1-0.5-3.2-0.5
		c-1.8,0-3.7,0.4-5.3,1.3c-1.2,0.7-2.3,1.6-3.1,2.6c-0.5,0.7-1,1.4-1.4,2.2c-0.1,0.3-0.2,0.5-0.3,0.8c0,0,0.1-0.3,0.4-0.8
		c0.4-0.8,0.9-1.5,1.4-2.1c0.9-1,1.9-1.9,3.1-2.5c1.6-0.9,3.4-1.3,5.2-1.3c1.1,0,2.1,0.2,3.1,0.5c1.1,0.4,2.1,0.9,3.1,1.5
		c1.1,0.7,2.2,1.3,3.4,1.7c0.6,0.2,1.3,0.3,2,0.2c0.7-0.1,1.4-0.2,2-0.4c1.3-0.5,2.7-0.9,4.1-1c1.5-0.1,2.9,0.3,4.3,0.9
		c2.9,1.4,4.7,4.4,4.7,7.6v0.2h0.2c2.8-0.2,5.6,0,8.4,0.5c2.9,0.5,5.7,1.7,8.1,3.4c0.8,0.6,1.4,1.4,2,2.2c0.5,0.8,0.9,1.7,1.2,2.7
		c0.2,0.9,0.3,1.9,0.1,2.9c-0.1,0.9-0.5,1.8-1.1,2.6l-0.2,0.2l0.3,0.1c6.5,1.5,10.6,7.9,9.1,14.4c-0.1,0.4-0.2,0.7-0.3,1.1
		c-0.5,1.4-1.2,2.8-1.8,4.1c-0.6,1.3-0.7,2.8-0.2,4.2c0.6,1.2,1.4,2.3,2.4,3.1c0.9,0.8,1.7,1.6,2.5,2.6c1.2,1.7,1.5,3.8,1,5.8
		c-0.4,1.5-1.4,2.8-2.6,3.6c-0.8,0.6-1.7,0.9-2.6,1.1C642.5,235.6,642.2,235.6,642.2,235.6z"/>
	<path class="st3" d="M506.5,195.5c0-0.1,0-0.2,0-0.2c0-0.2,0-0.4,0.1-0.7c0.1-0.6,0.2-1.6,0.3-2.7s0.3-2.6,0.7-4.3
		c0.4-1.9,1-3.7,1.8-5.4c1-2.1,2.4-4,4.1-5.5c1-0.8,2.1-1.5,3.3-1.9c1.3-0.4,2.6-0.8,4-1.1c1.4-0.3,2.8-0.9,4-1.7
		c1.2-0.9,2.3-2,3.3-3.2c1-1.2,2-2.4,3.1-3.5c1.1-1.1,2.4-2.1,3.8-2.7c2.9-1.2,6.1-1.8,9.3-1.8c2.9,0,5.9,0.1,8.8,0.5
		c4.9,0.6,9.7,2.1,14.2,4.2c3,1.5,5.8,3.5,8.2,5.8c0.4,0.4,0.8,0.8,1.1,1.1l0.8,0.9l0.5,0.5c0.1,0.1,0.2,0.2,0.2,0.2
		c0-0.1-0.1-0.1-0.1-0.2l-0.4-0.6c-0.2-0.2-0.5-0.6-0.7-0.9s-0.7-0.7-1.1-1.2c-2.4-2.4-5.1-4.5-8.2-6c-4.5-2.2-9.3-3.7-14.3-4.4
		c-2.9-0.4-5.9-0.6-8.8-0.6c-3.2,0-6.4,0.6-9.3,1.8c-1.5,0.7-2.8,1.6-4,2.8c-1.1,1.1-2.1,2.4-3.1,3.5c-0.9,1.2-2,2.2-3.2,3.1
		c-1.2,0.8-2.5,1.4-3.9,1.7c-1.4,0.3-2.7,0.6-4,1.1c-1.2,0.5-2.4,1.2-3.4,2c-1.8,1.5-3.2,3.5-4.2,5.6c-0.8,1.8-1.4,3.6-1.7,5.5
		c-0.3,1.4-0.5,2.9-0.6,4.3c-0.1,1.2-0.2,2.1-0.2,2.7c0,0.3,0,0.5,0,0.7L506.5,195.5z"/>
	<path class="st14" d="M561.8,248.4c-0.1-1.7-1.2-3.3-2.8-4c-1.6-0.7-3.5-0.3-4.7,1c-1.1,1.3-1.2,3.1-0.2,4.5
		c0.4,0.7,1.1,1.2,1.8,1.6c1,0.4,2,0.5,3.1,0.3c0.9-0.1,1.6-0.5,2.2-1.2C561.6,250,561.9,249.2,561.8,248.4z"/>
	<path class="st3" d="M560.2,242.3c-0.5,0-0.2,3.2-2.7,5.6s-5.9,2.4-5.9,2.9c0,0.2,0.8,0.5,2.2,0.5c1.9-0.1,3.6-0.9,5-2.2
		c1.3-1.2,2-2.9,2.1-4.7C560.8,243,560.4,242.2,560.2,242.3z"/>
	<path class="st5" d="M615.5,294.8l-24.6-9.3c0,0-19,11.2-33.5,8.9c-11.3-1.8-12.2-7.6-12.2-7.6l-13.6,2.2c0,0-20.6,17.2-24.9,34.6
		c-2.5,10.3-3.2,23.8-3.2,35.6c0,4.7,6,23.4,6,23.4l2.3,27.1l-11.4,45.1h118.9V329.9L615.5,294.8z"/>
	<polygon class="st5" points="482.5,369.3 465.2,326.1 514.7,291.6 531.5,289 527.2,350.2 	"/>
	<path class="st3" d="M508.3,377.5c-0.1-0.2-0.2-0.4-0.3-0.6c-0.2-0.4-0.5-1-0.8-1.8c-0.9-2.2-1.6-4.5-2.2-6.8
		c-1.8-7.7-2.3-15.6-1.5-23.4c0.8-7.8,2.3-15.5,4.3-23.1c0.8-2.9,1.4-5.2,1.9-6.9l0.5-1.9c0.1-0.2,0.1-0.4,0.2-0.6
		c0,0.2-0.1,0.5-0.1,0.7c-0.1,0.5-0.3,1.1-0.5,1.9c-0.4,1.7-1,4-1.7,6.9c-1.9,7.6-3.3,15.2-4.1,23c-0.8,7.8-0.3,15.6,1.4,23.2
		c0.5,2.3,1.2,4.6,2,6.8c0.3,0.8,0.5,1.4,0.7,1.8C508.2,377.1,508.3,377.3,508.3,377.5z"/>
	<g class="st15">
		<path d="M502.7,353.6l1.1-0.8c-0.1-13.4,2.1-26.7,6.4-39.4C502.2,325.3,498.7,340.3,502.7,353.6z"/>
	</g>
	<path class="st9" d="M536.8,347.6c0,0,17,63.1,26.5,74.7s14.7,15,29.3,16.2s20.1-15.8,23.3-22.4s2.7-16.5,2.7-16.5l-20-11.2
		l-15.8,26l-40.7-67.9L536.8,347.6z"/>
	<path class="st12" d="M539.4,355.9c0,0,17.4,40.4,29.8,63.5c10.5,19.6,32,17.4,38.9,6.5s18.2-43.6,18.2-43.6l-36.3-6.4l-4,11.5
		l-27.5-35.1L539.4,355.9z"/>
	<path class="st12" d="M569.1,350l-2.7-12.1c0,0-1.2-3.3-3.2-0.4s-1.1,8.5-1.1,8.5s-3.8-28.7-7.1-31.9c-1.2-1.1-2.9,0.4-2.9,0.4
		s-0.4-5.6-2.2-5.6s-3.4,4.2-3.4,4.2c-1.3-0.7-3-0.3-3.9,0.9c-1.5,1.9-1.5,17.5-1.5,17.5s-1.5-12.9-3.8-13.7
		c-3.7-1.3-3.7,3.6-3.7,3.6l1.1,16.8c0,0,2,11.4,4.5,18.6s4,7.3,4,7.3l16.5-0.4c0,0,3.7-3.4,6.7-6.1
		C568.8,355.8,569.7,352.9,569.1,350z"/>
	<path class="st14" d="M597.2,403.8c-0.1-0.2-0.2-0.3-0.3-0.5c-0.2-0.4-0.4-0.9-0.7-1.5l-1.3-2.2c-0.5-0.9-1.2-1.8-1.8-2.9
		c-2.9-4.2-7.2-9.7-12.1-15.7s-9.5-11.4-12.7-15.3c-1.6-2-2.9-3.6-3.7-4.8l-0.9-1.3c-0.1-0.1-0.2-0.3-0.3-0.5
		c0.1,0.1,0.3,0.3,0.4,0.4l1,1.3c0.9,1.1,2.2,2.7,3.8,4.6c3.3,3.9,7.8,9.2,12.8,15.2s9.2,11.6,12,15.8c0.7,1.1,1.3,2.1,1.8,2.9
		s0.9,1.6,1.2,2.3s0.5,1.1,0.6,1.5C597,403.4,597.1,403.6,597.2,403.8z"/>
	<path class="st5" d="M611.4,293.8c0,0,19.8,4,24.8,26.4c4.6,20.6,3.2,64.5,3.2,64.5l-53.9-9.5l13.1-74.9L611.4,293.8z"/>
	<path class="st3" d="M593.1,329.5c0,0.1,0,0.2,0,0.2c0,0.2-0.1,0.4-0.1,0.7c-0.1,0.6-0.2,1.5-0.4,2.6c-0.4,2.4-0.9,5.7-1.5,9.8
		c-1.4,8.3-3.2,19.7-5.3,32.4l-0.2-0.3l1.8,0.3l33.5,6l10.1,2l2.8,0.5l0.7,0.1l0.2,0.1c-0.1,0-0.2,0-0.2,0l-0.7-0.1l-2.8-0.4
		l-10.2-1.7l-33.5-5.9l-1.8-0.3l-0.2,0v-0.2c2.2-12.7,4.1-24.1,5.5-32.3c0.7-4.1,1.3-7.4,1.7-9.7c0.2-1.1,0.4-2,0.5-2.6
		c0-0.3,0.1-0.5,0.1-0.7C593,329.7,593,329.6,593.1,329.5z"/>
	<path class="st3" d="M596.2,322.3c0.1-0.4,0.2-0.9,0.4-1.3c0.3-0.8,0.8-2,1.4-3.4c1.5-3.8,3.7-7.3,6.5-10.2
		c1.6-1.6,3.5-2.9,5.5-3.8c1.7-0.8,3.4-1.3,5.2-1.7c1.2-0.2,2.4-0.4,3.7-0.4c0.5,0,0.9,0,1.3,0.1c-1.7,0.1-3.3,0.4-4.9,0.7
		c-3.9,0.8-7.6,2.7-10.4,5.5c-2.7,2.9-4.9,6.3-6.5,10l-1.5,3.3C596.6,321.5,596.4,321.9,596.2,322.3z"/>
	<path class="st14" d="M546.4,334.2c-0.2-1-0.3-2-0.3-3.1c-0.1-1.9-0.2-4.5-0.2-7.4c0-2.5,0.1-4.9,0.3-7.4c0-1,0.2-2,0.5-3
		c0,1,0,2-0.1,3.1c-0.1,1.9-0.2,4.5-0.1,7.4s0,5.3,0.1,7.4C546.5,332.2,546.5,333.2,546.4,334.2z"/>
	<path class="st14" d="M551.8,314.8c0.1,0.8,0.2,1.7,0.2,2.5c0,1.5,0.1,3.7,0.2,6s0.3,4.5,0.4,6c0.1,0.8,0.1,1.7,0.1,2.5
		c-0.3-0.8-0.4-1.6-0.5-2.5c-0.2-1.5-0.4-3.7-0.5-6s-0.1-4.5-0.1-6C551.6,316.5,551.7,315.7,551.8,314.8z"/>
	<path class="st5" d="M179.7,199c-1.3-8.9-3.5-18.6-9.4-25.4c-4-4.8-8.7-8.8-13.9-12.1c-5.9-3.6-11.2-4.8-17.6-5.4l-4.2,3.7
		c13.4,3.2,25,12.5,31.8,24.4s9,26.3,6.8,39.9c-1.4,8.9-4.7,17.4-7.1,26s-4.1,17.8-2.4,26.7c7.3-2.9,5.3,2,8.4-5.3
		s4.7-23.2,6.5-30.9C181.4,228,181.5,211.2,179.7,199z"/>
	<path class="st3" d="M172.5,179.2c-11.3-17.5-37.6-22.9-37.6-22.9c-38.5-2.8-45.4,26.8-49.3,53.8c-2.4,16.7,6.5,69.1,6.5,69.1
		l9.4,3.4h62c0-1.1,4.4-10.6,5.5-13.7C174.7,240.8,179.1,189.5,172.5,179.2z"/>
	<polygon class="st3" points="174.2,271.5 174.2,271.5 174.2,271.5 	"/>
	<path class="st13" d="M140.4,166.3L138,164l-26,10.5c-3.8,0.2-6.7,3.2-6.9,7l0.2,84.8c0,5.8,1.1,10.7,4.6,15.3l3.6,4.8
		c8.3,11,25.5,10.1,32.1-2c0.4-0.7,0.7-1.4,0.9-2.2c0.2-0.6,0.3-1.3,0.4-1.9c0.8-6.8,0.8-12.7,0.8-12.7c0.5-7.5,0.6-10.6,0.6-10.5
		s15.9-1.8,20.2-22.3c2.1-10.2,1.7-24.2,1.1-38C169,177.8,155.7,166.3,140.4,166.3z"/>
	<path class="st3" d="M135.7,209.6c-0.1,1.4-1.3,2.6-2.7,2.5c-1.4,0-2.6-1.1-2.6-2.5c0,0,0,0,0-0.1c0.1-1.4,1.2-2.6,2.7-2.6
		C134.5,207,135.6,208.2,135.7,209.6C135.7,209.6,135.7,209.6,135.7,209.6z"/>
	<path class="st3" d="M161.9,210.5c-0.1,1.4-1.2,2.6-2.7,2.5c-1.4,0-2.6-1.1-2.6-2.5c0,0,0,0,0-0.1c0.1-1.4,1.2-2.6,2.7-2.6
		C160.7,207.9,161.9,209,161.9,210.5C161.9,210.5,161.9,210.5,161.9,210.5z"/>
	<path class="st3" d="M167.1,202.3c-0.4,0.3-2.3-1.2-5.1-1.4s-5,1.2-5.3,0.8c-0.1-0.2,0.2-0.8,1.2-1.4c1.3-0.8,2.8-1.2,4.3-1.1
		c1.5,0.1,2.9,0.6,4.1,1.5C167,201.5,167.2,202.2,167.1,202.3z"/>
	<path class="st3" d="M138.2,202.6c-0.4,0.3-2.1-1.5-5-1.9s-5.1,0.7-5.4,0.3c-0.1-0.2,0.3-0.7,1.3-1.3c1.3-0.7,2.9-0.9,4.4-0.6
		c1.5,0.2,2.8,0.9,3.9,1.9C138.2,201.8,138.4,202.5,138.2,202.6z"/>
	<path class="st3" d="M148.2,223.3c0-0.2,1.8-0.4,4.7-0.6c0.7,0,1.4-0.1,1.6-0.6c0.1-0.7,0-1.5-0.4-2.2c-0.6-1.8-1.2-3.7-1.9-5.6
		c-2.6-8-4.4-14.6-4.1-14.7s2.7,6.3,5.3,14.4c0.6,2,1.2,3.9,1.8,5.7c0.4,0.9,0.5,1.9,0.2,2.9c-0.2,0.5-0.7,0.9-1.2,1
		c-0.4,0.1-0.8,0.1-1.2,0.1C149.9,223.6,148.2,223.5,148.2,223.3z"/>
	<path class="st16" d="M148.4,257.2c-9.7-0.4-19.1-3.4-27.2-8.8c0,0,6.2,14.6,27,13.7L148.4,257.2z"/>
	<path class="st16" d="M146.6,230.2c-1-1.4-2.7-2.2-4.5-2.1c-1.3,0-2.5,0.6-3.3,1.6c-0.8,0.9-1,2.3-0.4,3.4c0.9,1.1,2.3,1.5,3.7,1.1
		c1.4-0.4,2.6-1.1,3.8-2c0.3-0.2,0.6-0.5,0.9-0.8c0.2-0.3,0.2-0.7,0.1-1.1"/>
	<path class="st3" d="M139.6,224.9c0.5,0,0.3,3.1,2.9,5.4s5.8,2.1,5.8,2.6c0,0.2-0.8,0.6-2.2,0.5c-1.8-0.1-3.5-0.8-4.9-2
		c-1.3-1.2-2.1-2.8-2.2-4.5C139,225.6,139.4,224.9,139.6,224.9z"/>
	<path class="st3" d="M140.9,191.5c-0.4,0.7-3.1-0.1-6.5-0.2s-6.2,0.4-6.5-0.4c-0.1-0.4,0.4-1,1.6-1.6c3.2-1.4,6.9-1.2,9.9,0.4
		C140.6,190.5,141.1,191.2,140.9,191.5z"/>
	<path class="st3" d="M166.7,190.1c-0.5,0.6-2.5-0.1-4.8-0.3s-4.4,0.2-4.8-0.5c-0.2-0.3,0.2-1,1.1-1.5c2.5-1.4,5.5-1.1,7.8,0.6
		C166.6,189.1,166.9,189.8,166.7,190.1z"/>
	<path class="st3" d="M105.6,217.7c0,0,14.6,4.5,22.8-31.4c2.8-12.3,14.2-22.3,14.2-22.3l-4.6-1.4c0,0-28.8,8.1-29.2,8.5
		s-7.2,14.9-7.2,14.9L105.6,217.7z"/>
	<path class="st13" d="M109.2,216.4c0.1-1.5-1.5-5.2-3-5.6c-4-0.8-11.3-0.9-11.9,9.4c-0.8,14.1,13.5,12,13.5,11.6
		S109,221.7,109.2,216.4z"/>
	<path class="st16" d="M103.8,226.2c-0.1,0-0.3,0.2-0.7,0.3c-0.6,0.2-1.2,0.2-1.8-0.1c-1.5-0.6-2.6-3.1-2.5-5.6
		c0-1.2,0.3-2.4,0.9-3.5c0.3-0.9,1-1.5,1.9-1.8c0.6-0.1,1.2,0.2,1.4,0.8c0.2,0.4,0.1,0.7,0.1,0.7s0.3-0.2,0.2-0.8
		c-0.1-0.4-0.2-0.7-0.5-0.9c-0.4-0.3-0.9-0.5-1.3-0.4c-1.2,0.2-2.2,0.9-2.7,2c-0.7,1.2-1,2.5-1.1,3.9c-0.1,2.8,1.2,5.6,3.2,6.3
		c0.8,0.3,1.6,0.2,2.3-0.2C103.7,226.6,103.8,226.3,103.8,226.2z"/>
	<path class="st3" d="M115.5,210.8c0,0,0.8,0,2.1-0.4c1.9-0.6,3.6-1.6,5-2.9c1-0.9,1.9-1.9,2.6-3.1c0.8-1.3,1.6-2.7,2.1-4.1
		c1.2-3.3,2.2-6.8,3-10.2c0.9-3.5,2-6.9,3.2-10.2c1-2.7,2.2-5.4,3.7-7.9c1-1.7,2-3.4,3.2-4.9c0.4-0.6,0.8-1,1-1.2
		c0.1-0.1,0.2-0.3,0.4-0.4c-0.1,0.2-0.2,0.3-0.3,0.5c-0.2,0.3-0.6,0.7-1,1.3c-1.1,1.6-2.2,3.3-3.1,5c-1.4,2.6-2.6,5.2-3.6,7.9
		c-1.1,3.1-2.2,6.5-3.2,10.2c-0.8,3.5-1.8,6.9-3.1,10.3c-0.6,1.5-1.3,2.8-2.2,4.1c-0.8,1.1-1.7,2.2-2.7,3.1
		c-1.5,1.4-3.2,2.3-5.1,2.9C116.9,210.8,116.2,210.8,115.5,210.8z"/>
	<path class="st8" d="M93.7,269.5c0.2-1.6,0.3-3.3,0.3-4.9c-0.1-4.5-0.5-9-1.4-13.4l-1.6-9.1c-0.6-3.5-1.1-7-1.3-10.5
		c-0.2-3.9,0-7.8,0.8-11.6c0.5-2,1.1-4,2-5.8c0.9-1.9,2-3.7,3.3-5.4c2.7-3.2,5.6-6.2,8.8-8.9c3.1-2.7,6-5.3,8.7-8
		c4.7-4.7,8.9-9.9,12.6-15.4c2.5-3.7,4.8-7.6,6.9-11.6c0.7-1.4,1.3-2.5,1.6-3.3c0.2-0.4,0.3-0.7,0.4-0.9c0.1-0.1,0.1-0.2,0.1-0.3
		l-0.2,0.3l-0.4,0.8c-0.4,0.8-0.9,1.9-1.7,3.2c-5.2,9.9-11.8,18.9-19.7,26.8c-2.6,2.7-5.6,5.3-8.6,7.9c-3.3,2.7-6.2,5.7-8.9,9
		c-1.3,1.7-2.5,3.5-3.4,5.5c-0.9,1.9-1.5,3.9-2,5.9c-0.8,3.9-1.1,7.8-0.8,11.7c0.2,3.5,0.7,7.1,1.3,10.6c0.6,3.3,1.2,6.3,1.7,9.1
		c0.9,4.4,1.4,8.8,1.5,13.3c0,1.6,0,2.8-0.1,3.6c0,0.4,0,0.7-0.1,1S93.7,269.5,93.7,269.5z"/>
	<path class="st8" d="M89.2,270.8c0.2-1.6,0.3-3.3,0.3-4.9c-0.1-4.5-0.5-9-1.4-13.4c-0.5-2.8-1-5.8-1.6-9.1c-0.6-3.5-1.1-7-1.3-10.5
		c-0.3-3.9,0-7.8,0.8-11.6c0.5-2,1.1-4,2-5.8c0.9-1.9,2-3.7,3.3-5.4c2.7-3.2,5.6-6.2,8.9-8.9c3.1-2.7,6-5.3,8.6-8
		c4.7-4.7,8.9-9.9,12.6-15.4c2.5-3.7,4.8-7.5,6.8-11.5c0.7-1.4,1.2-2.5,1.6-3.3c0.2-0.4,0.3-0.6,0.4-0.9c0-0.1,0.1-0.2,0.1-0.3
		c-0.1,0.1-0.1,0.2-0.2,0.3c-0.1,0.2-0.2,0.5-0.4,0.9c-0.4,0.8-0.9,1.8-1.7,3.2c-5.2,9.8-11.8,18.9-19.6,26.8
		c-2.6,2.7-5.6,5.3-8.6,7.9c-3.3,2.7-6.2,5.7-8.9,9c-1.3,1.7-2.5,3.5-3.4,5.5c-0.9,1.9-1.5,3.9-2,5.9c-0.8,3.9-1.1,7.8-0.8,11.7
		c0.2,3.5,0.7,7.1,1.3,10.6c0.6,3.3,1.2,6.3,1.7,9.1c0.9,4.4,1.4,8.8,1.5,13.3c0,1.6,0,2.8-0.1,3.6l-0.1,1
		C89.2,270.6,89.2,270.7,89.2,270.8z"/>
	<path class="st3" d="M68.9,454.7c0,0-1.3-11.7,6.2-31.3c6.1-16,13.3-24.9,13.3-24.9l97-6.4l7.5,62.5L68.9,454.7z"/>
	<path class="st1" d="M184.2,355.8c1.4-21.6,0-54.3,0-54.3l-16-26.9l-21.1-3.3c0,0-0.1,14.8-11.1,17.2
		c-18.9,4.2-31.2-18.5-31.2-18.5c-1.8,0-28.6,5.6-37.1,13.7c-8.7,8.3-23.2,30.4-27.3,36.7l0,0c0,0-28.3,41.3-32.4,52.6
		c-2.3,5.8-1.8,12.4,1.4,17.8c0.9,2.5,27,40.1,47.3,55.1l1.6-3l10.5-18l-27.2-44.7l31.6-33.3l6.2-5.8l1.8,7.9l7.7,36.9
		c0,0-15.3,30.5-17.4,46.4c0,0,75,25.9,121.3,13.1C192.7,445.3,182.8,377.4,184.2,355.8z"/>
	<path class="st13" d="M105.3,416.8c0,0-12.7-3.4-14-2.7s-10.8,5.7-10.8,5.7c-1.4,1.7-2.9,3.3-4.5,4.9c0,0-3.3,3.1-5.5,3.2
		c-1.2,0.1-2.4,0-3.6-0.4l-8.8,15.5c0,0,5.2,5,8,4.9s18-6.5,18-6.5l3.7-0.8c0,0,13.9,2,15-2.2l0.2-1.2l-13.6-2.7l-5.2,0.3l9.2-2.4
		c0,0,13,0.6,14.2,0.4s2.8-1.9,2.4-3l-2.7-0.6c0,0,3.1-1.7,3.2-3.6l-12-3.2C98.7,422.4,106.4,419.5,105.3,416.8z"/>
	<path class="st16" d="M108.9,429.2c-0.4,0-0.8-0.1-1.1-0.3c-0.7-0.2-1.7-0.5-3-0.8c-2.5-0.6-6-1.5-9.9-2.3
		c-0.5-0.1-0.9-0.2-1.4-0.3c-0.4,0-0.9,0-1.3,0.1c-0.9,0.2-1.8,0.5-2.6,0.8c-1.6,0.5-3.1,1.1-4.3,1.6s-2.1,1-2.8,1.4
		c-0.3,0.2-0.7,0.4-1,0.5c0.3-0.3,0.6-0.5,0.9-0.7c0.9-0.6,1.8-1.1,2.7-1.5c1.4-0.7,2.8-1.2,4.3-1.8c0.8-0.3,1.7-0.6,2.6-0.9
		c0.5-0.1,1-0.2,1.5-0.1c0.5,0,1,0.2,1.5,0.3c3.9,0.9,7.4,1.8,9.9,2.5c1.3,0.4,2.3,0.7,2.9,1C108.2,428.8,108.5,429,108.9,429.2z"/>
	<path class="st16" d="M99,423c-0.1,0.1-1-0.5-2.6-0.9c-4.2-1.3-8.8-0.6-12.4,1.8c-1.4,0.9-2.1,1.7-2.2,1.6c0.5-0.8,1.2-1.5,2-2
		c3.7-2.8,8.5-3.5,12.8-1.9C97.5,421.9,98.3,422.4,99,423z"/>
	<polygon class="st1" points="249.4,326.4 199.9,289.5 181.4,277.4 167.8,274.6 173.6,332.3 186.4,332.3 241.6,356.3 309.2,362 
		310.2,341.1 	"/>
	<path class="st3" d="M185.2,381.1c0-0.3-0.1-0.6-0.1-0.9c0-0.6-0.1-1.4-0.1-2.5c-0.1-2.1-0.2-5.2-0.2-9s-0.1-8.4-0.1-13.4
		s0-10.6,0-16.4c0-11.6-2.2-22-3.9-29.5c-0.9-3.7-1.6-6.7-2.1-8.8c-0.2-1-0.4-1.8-0.6-2.4c-0.1-0.3-0.1-0.6-0.2-0.8
		c0.1,0.3,0.2,0.5,0.3,0.8c0.2,0.6,0.4,1.4,0.7,2.4c0.6,2.1,1.4,5,2.3,8.8c2.6,9.6,3.9,19.6,4.1,29.5c0.1,5.8,0,11.4,0,16.4
		s0,9.6,0,13.4s0,6.9,0.1,9c0,1,0,1.9,0,2.5C185.2,380.5,185.2,380.8,185.2,381.1z"/>
	<g class="st15">
		<path d="M184.8,333.4c4.1-15.2,0-31.5-10.7-43.1c5.6,13.5,9.2,27.7,10.8,42.2"/>
	</g>
	<path class="st5" d="M144,156.7c-31,2.8-32.2,40.7-36.3,70.6c-5.9,42.7,25.4,51.9,25.4,51.9l-38.8-7.3c0,0-21.2-8.6-21.1-32.2
		s3.9-52.4,28.6-74.3C123.1,146.4,142.1,155.4,144,156.7z"/>
	<path class="st5" d="M174.2,270c-2.3-2.1-1.4-2.9-8.1-3.5c-7.6-0.7-16,4.1-23.6,5.1s-15.6,0-21.9-4.2c-7.4-4.9-11.4-13.5-15.1-21.6
		l-18.2,15c-3.6,2.9-5.6,7.3-5.5,11.8c0,0.8,0.1,1.5,0.4,2.2c1.1,1.6,8.9-2.2,10.4-1.1c8.3,5.8,11.9,15.1,19.5,21.8
		c8.9,7.9,17.2,14.1,23.5,13.9s17.9-6.9,22.1-14.6c3.9-7.1,7.2-12.3,10.2-17.8c1.6-2.9,7.1,1.2,7.8-2.2
		C176.1,273.1,175.5,271.2,174.2,270z"/>
	<path class="st3" d="M73.2,314.5c0.1,0.2,0.2,0.5,0.2,0.7l0.6,2.1c0.5,1.9,1.1,4.4,1.9,7.6c1.6,6.4,3.6,15.3,5.8,25.2
		s4.1,18.8,5.4,25.3c0.6,3.2,1.1,5.9,1.4,7.7c0.1,0.9,0.2,1.6,0.3,2.1c0.1,0.2,0.1,0.5,0.1,0.7c-0.1-0.2-0.1-0.5-0.2-0.7
		c-0.1-0.5-0.2-1.2-0.4-2.1c-0.4-1.9-0.9-4.5-1.6-7.7c-1.4-6.5-3.3-15.4-5.5-25.2s-4.2-18.7-5.7-25.2c-0.7-3.2-1.3-5.8-1.7-7.6
		c-0.2-0.9-0.3-1.5-0.4-2.1C73.2,315,73.2,314.7,73.2,314.5z"/>
	<path class="st3" d="M174.2,273.9c-0.1,0.1-0.1,0.1-0.2,0.1l-0.6,0.4c-0.8,0.5-1.6,0.9-2.4,1.3c-3.1,1.4-6.3,2.5-9.6,3.2
		c-4.9,1.1-10,1.6-15,1.7c-5.7,0.2-11.9-0.1-18.5-0.5c-3.3-0.2-6.5-0.5-9.5-1s-6-1.1-8.7-1.8c-4.9-1.3-9.6-3-14.2-5.2
		c-3.1-1.5-6-3.2-8.8-5.1c-1-0.7-1.7-1.3-2.2-1.6l-0.6-0.5c-0.1-0.1-0.2-0.2-0.2-0.2l0.2,0.1l0.6,0.4c0.5,0.4,1.2,0.9,2.3,1.6
		c2.8,1.9,5.8,3.6,8.8,5c4.5,2.1,9.3,3.8,14.1,5.1c2.7,0.7,5.6,1.3,8.7,1.8s6.2,0.8,9.5,1c6.5,0.4,12.8,0.7,18.4,0.6
		c5-0.1,10-0.6,14.9-1.6c3.3-0.7,6.5-1.7,9.6-3c1.1-0.4,1.9-0.9,2.5-1.2l0.6-0.3C174,273.9,174.1,273.9,174.2,273.9z"/>
	<path class="st3" d="M114.7,278l-0.2-0.1l-0.6-0.4l-2.1-1.6c-0.9-0.7-2-1.6-3.2-2.6c-0.6-0.5-1.2-1.1-1.9-1.7s-1.4-1.2-2.1-2
		c-3.5-3.3-6.5-7-9-11c-3.1-5-4.8-10.7-5.1-16.6c-0.1-5.8,0.7-11.7,2.4-17.3c1.4-5.2,2.9-9.8,4.1-13.6c1.2-3.9,2.1-6.9,2.8-9.1
		c0.3-1.1,0.6-1.9,0.8-2.5c0.1-0.3,0.1-0.5,0.2-0.6c0-0.1,0-0.2,0.1-0.2c0,0,0,0.1,0,0.2l-0.2,0.7l-0.7,2.5
		c-0.6,2.2-1.5,5.3-2.7,9.2s-2.6,8.5-4,13.6c-1.6,5.6-2.4,11.3-2.3,17.1c0.2,5.8,2,11.4,5,16.4c2.5,4,5.5,7.7,8.9,11
		c0.7,0.7,1.4,1.4,2.1,2s1.3,1.2,1.9,1.7c1.2,1,2.3,2,3.1,2.7l2,1.6l0.5,0.4C114.7,277.9,114.7,277.9,114.7,278z"/>
	<path class="st3" d="M144,156.7c0,0.1-1.6,0.2-4.1,0.9c-1.5,0.4-2.9,1-4.2,1.6c-1.7,0.8-3.3,1.8-4.8,2.8c-2.8,2-5.3,4.2-7.7,6.6
		c-1.8,1.9-2.9,3.1-3,3c0.2-0.3,0.4-0.6,0.7-0.9c0.4-0.6,1.1-1.4,2-2.3c2.3-2.5,4.9-4.8,7.7-6.8c1.6-1.1,3.2-2,4.9-2.8
		c1.4-0.7,2.8-1.2,4.3-1.6c0.6-0.2,1.2-0.3,1.7-0.4c0.4-0.1,0.9-0.1,1.3-0.2C143.2,156.7,143.6,156.7,144,156.7z"/>
	<g class="st15">
		<path d="M104.4,189.1c0.3-0.9,0.5-1.9,0.6-2.9c0.1-0.9-0.6-1.6-1.4-1.7c-0.7-0.1-1.3,0.3-1.6,1c-2.1,5.4-4.1,10.9-6.1,16.3
			c-4,10.7-8.2,21.7-8.4,33.2s3.4,24.2,13.1,30.3l-2.8-5c-7.3-10-7.5-23.7-4.7-35.8S101.3,201.1,104.4,189.1z"/>
	</g>
	<path class="st3" d="M174.8,276.6c-0.1,0,0.2-0.5,0.5-1.3c0.3-1.2,0.2-2.5-0.3-3.7c-0.7-1.7-2.1-3.1-3.8-3.9
		c-2.1-0.9-4.4-1.3-6.7-1c-2.3,0.2-4.6,0.6-6.9,1.2c-2.1,0.5-4,1-5.5,1.5s-2.8,0.9-3.7,1.2c-0.4,0.2-0.9,0.3-1.4,0.4
		c0.4-0.3,0.8-0.5,1.3-0.6c0.9-0.4,2.1-0.8,3.6-1.3s3.4-1.1,5.5-1.6c2.3-0.6,4.6-1,6.9-1.2c2.4-0.3,4.8,0.1,7,1.1
		c1.8,0.8,3.3,2.3,4,4.2c0.5,1.2,0.5,2.6,0.2,3.9c-0.1,0.4-0.2,0.7-0.4,1C174.9,276.5,174.9,276.6,174.8,276.6z"/>
	<g class="st15">
		<path d="M164.4,278.5c-11.9,5.3-25.1,7.2-38,5.6c-12.9-1.7-23.6-5.4-33.7-13.5c0,0,16.1,9.3,41.1,9.5
			C154.6,280.2,164.4,278.5,164.4,278.5z"/>
	</g>
</g>
</svg>
